<?xml version="1.0" encoding="UTF-8"?>
<!DOCTYPE svg PUBLIC "-//W3C//DTD SVG 1.1//EN" "http://www.w3.org/Graphics/SVG/1.1/DTD/svg11.dtd">
<svg xmlns="http://www.w3.org/2000/svg" version="1.1" width="468px" height="365px"
     style="shape-rendering:geometricPrecision; text-rendering:geometricPrecision; image-rendering:optimizeQuality; fill-rule:evenodd; clip-rule:evenodd"
     xmlns:xlink="http://www.w3.org/1999/xlink">
    //Logo
    <g>
        <path style="opacity:1" fill="#fbfbfb"
              d="M 186.5,52.5 C 195.629,56.1029 204.629,60.1029 213.5,64.5C 217.165,67.3325 220.332,70.6659 223,74.5C 232.926,93.1992 231.426,110.866 218.5,127.5C 221.091,130.466 224.091,132.966 227.5,135C 229.681,136.84 232.181,138.007 235,138.5C 241.195,136.117 246.361,132.45 250.5,127.5C 248.906,124.063 247.073,120.73 245,117.5C 236.702,97.3234 240.535,79.8234 256.5,65C 268.817,58.1771 281.817,53.0104 295.5,49.5C 298.833,49.5 302.167,49.5 305.5,49.5C 309.539,50.9424 313.039,53.2758 316,56.5C 331.697,77.0193 347.53,97.3527 363.5,117.5C 375.168,132.673 386.668,148.007 398,163.5C 404.154,173.138 408.654,183.471 411.5,194.5C 411.916,197.583 412.583,200.583 413.5,203.5C 413.5,205.5 413.5,207.5 413.5,209.5C 414.697,222.286 413.031,234.619 408.5,246.5C 406.586,251.335 403.919,255.669 400.5,259.5C 399.312,260.684 398.145,260.684 397,259.5C 396.501,255.848 396.335,252.182 396.5,248.5C 396.332,239.152 395.832,229.819 395,220.5C 394.386,215.242 393.219,210.242 391.5,205.5C 389.696,194.924 386.196,184.924 381,175.5C 367.602,156.1 353.436,137.267 338.5,119C 327.172,118.5 315.838,118.333 304.5,118.5C 304.351,119.552 304.517,120.552 305,121.5C 326.378,145.276 347.045,169.609 367,194.5C 373.558,204.284 379.058,214.618 383.5,225.5C 385.904,231.711 387.904,238.044 389.5,244.5C 389.666,253.506 389.5,262.506 389,271.5C 388.313,275.58 387.313,279.58 386,283.5C 384.774,285.548 383.274,285.881 381.5,284.5C 380.042,280.959 378.876,277.292 378,273.5C 377.612,272.572 376.945,271.905 376,271.5C 355.248,289.53 331.081,298.03 303.5,297C 292.856,279.731 286.523,261.064 284.5,241C 284.667,238.5 284.833,236 285,233.5C 290.954,229.229 297.454,227.562 304.5,228.5C 304.5,229.5 304.5,230.5 304.5,231.5C 302.437,247.118 306.103,261.451 315.5,274.5C 336.241,273.217 354.074,265.217 369,250.5C 369.21,245.631 367.71,241.298 364.5,237.5C 353.784,246.025 341.784,252.192 328.5,256C 326.833,256.667 325.167,256.667 323.5,256C 318.712,249.97 316.545,243.136 317,235.5C 323.778,233.689 330.278,231.356 336.5,228.5C 343.171,226.081 349.338,222.748 355,218.5C 355.667,217.167 355.667,215.833 355,214.5C 341.597,195.761 327.43,177.594 312.5,160C 306.139,156.728 299.806,156.728 293.5,160C 292.54,161.419 291.707,162.919 291,164.5C 289.992,171.235 288.658,177.901 287,184.5C 283.878,189.649 279.378,192.149 273.5,192C 271.094,190.378 269.261,188.211 268,185.5C 267.058,176.398 267.391,167.398 269,158.5C 276.041,150.271 284.541,144.271 294.5,140.5C 292.7,135.586 289.866,131.253 286,127.5C 278.561,116.172 280.728,107.338 292.5,101C 303.182,100.832 313.849,100.332 324.5,99.5C 318,91.1667 311.5,82.8333 305,74.5C 300.52,71.7785 295.687,70.9451 290.5,72C 262.778,79.0014 255.278,95.168 268,120.5C 270.614,123.432 272.781,126.599 274.5,130C 274.142,132.032 273.308,133.866 272,135.5C 265.312,141.19 258.978,147.19 253,153.5C 249.997,190.533 246.831,227.533 243.5,264.5C 236.351,289.488 222.018,309.322 200.5,324C 195.368,327.713 189.701,329.38 183.5,329C 181.675,327.534 181.175,325.701 182,323.5C 202.953,307.266 216.62,286.266 223,260.5C 223.529,225.105 222.196,189.772 219,154.5C 213.355,148.523 207.355,142.857 201,137.5C 199.086,135.252 197.586,132.752 196.5,130C 202.104,122.96 206.271,115.127 209,106.5C 210.656,95.6429 207.156,86.8096 198.5,80C 188.726,72.9573 178.059,70.9573 166.5,74C 159.713,82.4093 153.046,90.9093 146.5,99.5C 157.151,100.332 167.818,100.832 178.5,101C 187.626,104.416 191.126,110.916 189,120.5C 184.963,126.736 180.796,132.903 176.5,139C 176.645,139.772 176.978,140.439 177.5,141C 186.811,145.238 194.978,151.072 202,158.5C 203.109,163.056 203.609,167.722 203.5,172.5C 203.581,177.582 203.081,182.582 202,187.5C 198.58,191.815 194.414,192.982 189.5,191C 182.456,185.584 179.622,178.418 181,169.5C 180.547,164.39 178.047,160.89 173.5,159C 165.106,156.648 158.272,158.815 153,165.5C 139.641,182.691 126.475,200.025 113.5,217.5C 125.919,226.201 139.586,232.201 154.5,235.5C 154.3,243.066 151.966,249.899 147.5,256C 142.298,256.273 137.298,255.273 132.5,253C 122.911,248.962 114.078,243.795 106,237.5C 102.972,241.269 101.639,245.602 102,250.5C 115.025,262.497 130.191,270.664 147.5,275C 151.274,276.183 154.441,275.349 157,272.5C 165.048,258.865 168.381,244.198 167,228.5C 167.561,227.978 168.228,227.645 169,227.5C 173.833,228.667 178.667,229.833 183.5,231C 186.041,233.749 187.041,237.082 186.5,241C 184.491,259.204 179.158,276.37 170.5,292.5C 169.883,294.229 168.883,295.729 167.5,297C 153.653,298.47 140.319,296.47 127.5,291C 122.265,288.215 116.932,285.715 111.5,283.5C 106.139,279.394 100.639,275.394 95,271.5C 92.2921,274.962 90.7921,278.962 90.5,283.5C 88.9769,285.51 87.1436,285.844 85,284.5C 82.1389,275.561 80.9723,266.395 81.5,257C 80.932,243.105 83.7653,229.938 90,217.5C 94.2454,208.669 99.2454,200.336 105,192.5C 124.959,168.272 145.626,144.605 167,121.5C 167.483,120.552 167.649,119.552 167.5,118.5C 155.829,118.333 144.162,118.5 132.5,119C 119.95,134.548 107.784,150.382 96,166.5C 86.1521,180.703 79.8188,196.369 77,213.5C 75.05,228.096 74.05,242.763 74,257.5C 71.1192,259.028 68.7859,258.362 67,255.5C 64.7874,251.075 62.6207,246.741 60.5,242.5C 55.1257,225.067 55.459,207.734 61.5,190.5C 62.9651,185.438 64.6318,180.438 66.5,175.5C 70.3914,168.729 74.5581,162.063 79,155.5C 101.428,126.286 123.594,96.953 145.5,67.5C 149.968,62.8613 154.301,58.028 158.5,53C 161.859,50.3242 165.692,48.8242 170,48.5C 175.59,49.5312 181.09,50.8646 186.5,52.5 Z"/>
    </g>
</svg>
