<?xml version="1.0" encoding="UTF-8"?>
<!DOCTYPE svg PUBLIC "-//W3C//DTD SVG 1.1//EN" "http://www.w3.org/Graphics/SVG/1.1/DTD/svg11.dtd">
<svg xmlns="http://www.w3.org/2000/svg" version="1.1" width="482px" height="515px"
     style="shape-rendering:geometricPrecision; text-rendering:geometricPrecision; image-rendering:optimizeQuality; fill-rule:evenodd; clip-rule:evenodd"
     xmlns:xlink="http://www.w3.org/1999/xlink">
    //Logo
    <g>
        <path style="opacity:1" fill="#fbfbfb"
              d="M 186.5,52.5 C 195.629,56.1029 204.629,60.1029 213.5,64.5C 217.165,67.3325 220.332,70.6659 223,74.5C 232.926,93.1992 231.426,110.866 218.5,127.5C 221.091,130.466 224.091,132.966 227.5,135C 229.681,136.84 232.181,138.007 235,138.5C 241.195,136.117 246.361,132.45 250.5,127.5C 248.906,124.063 247.073,120.73 245,117.5C 236.702,97.3234 240.535,79.8234 256.5,65C 268.817,58.1771 281.817,53.0104 295.5,49.5C 298.833,49.5 302.167,49.5 305.5,49.5C 309.539,50.9424 313.039,53.2758 316,56.5C 331.697,77.0193 347.53,97.3527 363.5,117.5C 375.168,132.673 386.668,148.007 398,163.5C 404.154,173.138 408.654,183.471 411.5,194.5C 411.916,197.583 412.583,200.583 413.5,203.5C 413.5,205.5 413.5,207.5 413.5,209.5C 414.697,222.286 413.031,234.619 408.5,246.5C 406.586,251.335 403.919,255.669 400.5,259.5C 399.312,260.684 398.145,260.684 397,259.5C 396.501,255.848 396.335,252.182 396.5,248.5C 396.332,239.152 395.832,229.819 395,220.5C 394.386,215.242 393.219,210.242 391.5,205.5C 389.696,194.924 386.196,184.924 381,175.5C 367.602,156.1 353.436,137.267 338.5,119C 327.172,118.5 315.838,118.333 304.5,118.5C 304.351,119.552 304.517,120.552 305,121.5C 326.378,145.276 347.045,169.609 367,194.5C 373.558,204.284 379.058,214.618 383.5,225.5C 385.904,231.711 387.904,238.044 389.5,244.5C 389.666,253.506 389.5,262.506 389,271.5C 388.313,275.58 387.313,279.58 386,283.5C 384.774,285.548 383.274,285.881 381.5,284.5C 380.042,280.959 378.876,277.292 378,273.5C 377.612,272.572 376.945,271.905 376,271.5C 355.248,289.53 331.081,298.03 303.5,297C 292.856,279.731 286.523,261.064 284.5,241C 284.667,238.5 284.833,236 285,233.5C 290.954,229.229 297.454,227.562 304.5,228.5C 304.5,229.5 304.5,230.5 304.5,231.5C 302.437,247.118 306.103,261.451 315.5,274.5C 336.241,273.217 354.074,265.217 369,250.5C 369.21,245.631 367.71,241.298 364.5,237.5C 353.784,246.025 341.784,252.192 328.5,256C 326.833,256.667 325.167,256.667 323.5,256C 318.712,249.97 316.545,243.136 317,235.5C 323.778,233.689 330.278,231.356 336.5,228.5C 343.171,226.081 349.338,222.748 355,218.5C 355.667,217.167 355.667,215.833 355,214.5C 341.597,195.761 327.43,177.594 312.5,160C 306.139,156.728 299.806,156.728 293.5,160C 292.54,161.419 291.707,162.919 291,164.5C 289.992,171.235 288.658,177.901 287,184.5C 283.878,189.649 279.378,192.149 273.5,192C 271.094,190.378 269.261,188.211 268,185.5C 267.058,176.398 267.391,167.398 269,158.5C 276.041,150.271 284.541,144.271 294.5,140.5C 292.7,135.586 289.866,131.253 286,127.5C 278.561,116.172 280.728,107.338 292.5,101C 303.182,100.832 313.849,100.332 324.5,99.5C 318,91.1667 311.5,82.8333 305,74.5C 300.52,71.7785 295.687,70.9451 290.5,72C 262.778,79.0014 255.278,95.168 268,120.5C 270.614,123.432 272.781,126.599 274.5,130C 274.142,132.032 273.308,133.866 272,135.5C 265.312,141.19 258.978,147.19 253,153.5C 249.997,190.533 246.831,227.533 243.5,264.5C 236.351,289.488 222.018,309.322 200.5,324C 195.368,327.713 189.701,329.38 183.5,329C 181.675,327.534 181.175,325.701 182,323.5C 202.953,307.266 216.62,286.266 223,260.5C 223.529,225.105 222.196,189.772 219,154.5C 213.355,148.523 207.355,142.857 201,137.5C 199.086,135.252 197.586,132.752 196.5,130C 202.104,122.96 206.271,115.127 209,106.5C 210.656,95.6429 207.156,86.8096 198.5,80C 188.726,72.9573 178.059,70.9573 166.5,74C 159.713,82.4093 153.046,90.9093 146.5,99.5C 157.151,100.332 167.818,100.832 178.5,101C 187.626,104.416 191.126,110.916 189,120.5C 184.963,126.736 180.796,132.903 176.5,139C 176.645,139.772 176.978,140.439 177.5,141C 186.811,145.238 194.978,151.072 202,158.5C 203.109,163.056 203.609,167.722 203.5,172.5C 203.581,177.582 203.081,182.582 202,187.5C 198.58,191.815 194.414,192.982 189.5,191C 182.456,185.584 179.622,178.418 181,169.5C 180.547,164.39 178.047,160.89 173.5,159C 165.106,156.648 158.272,158.815 153,165.5C 139.641,182.691 126.475,200.025 113.5,217.5C 125.919,226.201 139.586,232.201 154.5,235.5C 154.3,243.066 151.966,249.899 147.5,256C 142.298,256.273 137.298,255.273 132.5,253C 122.911,248.962 114.078,243.795 106,237.5C 102.972,241.269 101.639,245.602 102,250.5C 115.025,262.497 130.191,270.664 147.5,275C 151.274,276.183 154.441,275.349 157,272.5C 165.048,258.865 168.381,244.198 167,228.5C 167.561,227.978 168.228,227.645 169,227.5C 173.833,228.667 178.667,229.833 183.5,231C 186.041,233.749 187.041,237.082 186.5,241C 184.491,259.204 179.158,276.37 170.5,292.5C 169.883,294.229 168.883,295.729 167.5,297C 153.653,298.47 140.319,296.47 127.5,291C 122.265,288.215 116.932,285.715 111.5,283.5C 106.139,279.394 100.639,275.394 95,271.5C 92.2921,274.962 90.7921,278.962 90.5,283.5C 88.9769,285.51 87.1436,285.844 85,284.5C 82.1389,275.561 80.9723,266.395 81.5,257C 80.932,243.105 83.7653,229.938 90,217.5C 94.2454,208.669 99.2454,200.336 105,192.5C 124.959,168.272 145.626,144.605 167,121.5C 167.483,120.552 167.649,119.552 167.5,118.5C 155.829,118.333 144.162,118.5 132.5,119C 119.95,134.548 107.784,150.382 96,166.5C 86.1521,180.703 79.8188,196.369 77,213.5C 75.05,228.096 74.05,242.763 74,257.5C 71.1192,259.028 68.7859,258.362 67,255.5C 64.7874,251.075 62.6207,246.741 60.5,242.5C 55.1257,225.067 55.459,207.734 61.5,190.5C 62.9651,185.438 64.6318,180.438 66.5,175.5C 70.3914,168.729 74.5581,162.063 79,155.5C 101.428,126.286 123.594,96.953 145.5,67.5C 149.968,62.8613 154.301,58.028 158.5,53C 161.859,50.3242 165.692,48.8242 170,48.5C 175.59,49.5312 181.09,50.8646 186.5,52.5 Z"/>
    </g>
    //I
    <g>
        <path style="opacity:1" fill="#fefffe"
              d="M 178.5,391.5 C 178.5,395.5 178.5,399.5 178.5,403.5C 175.5,403.5 172.5,403.5 169.5,403.5C 169.5,387.167 169.5,370.833 169.5,354.5C 169.5,353.5 169.5,352.5 169.5,351.5C 172.5,351.5 175.5,351.5 178.5,351.5C 178.5,364.833 178.5,378.167 178.5,391.5 Z"/>
    </g>
    <g>
        <path style="opacity:1" fill="#969899"
              d="M 182.5,352.5 C 185.287,351.523 188.287,351.19 191.5,351.5C 191.5,352.5 191.5,353.5 191.5,354.5C 188.855,352.758 185.855,352.091 182.5,352.5 Z"/>
    </g>
    //O
    <g>
        <path style="opacity:1" fill="#f7f7f7"
              d="M 239.5,393.5 C 237.897,400.595 233.397,404.261 226,404.5C 219.119,403.952 215.119,400.285 214,393.5C 213.501,387.509 213.334,381.509 213.5,375.5C 213.334,370.489 213.501,365.489 214,360.5C 215.002,356.32 217.502,353.486 221.5,352C 229.085,349.857 234.918,352.024 239,358.5C 239.5,370.162 239.667,381.829 239.5,393.5 Z"/>
    </g>
    //V
    <g>
        <path style="opacity:1" fill="#f4f4f4"
              d="M 205.5,379.5 C 203.522,387.391 202.188,395.391 201.5,403.5C 198.428,403.817 195.428,403.484 192.5,402.5C 191.371,398.188 190.371,393.854 189.5,389.5C 187.289,377.114 184.956,364.78 182.5,352.5C 185.855,352.091 188.855,352.758 191.5,354.5C 193.373,363.408 194.707,372.408 195.5,381.5C 195.372,383.655 195.872,385.655 197,387.5C 197.49,386.207 197.657,384.873 197.5,383.5C 198.753,373.143 200.253,362.81 202,352.5C 204.719,351.556 207.552,351.223 210.5,351.5C 209.204,360.908 207.537,370.241 205.5,379.5 Z"/>
    </g>
    //R
    <g>
        <path style="opacity:1" fill="#fafafa"
              d="M 261.5,352.5 C 265.961,352.79 268.795,355.123 270,359.5C 270.667,364.5 270.667,369.5 270,374.5C 269.058,377.601 267.224,379.934 264.5,381.5C 267.127,388.678 269.127,396.011 270.5,403.5C 267.833,403.5 265.167,403.5 262.5,403.5C 261.256,396.177 259.256,389.177 256.5,382.5C 255.791,381.596 254.791,381.263 253.5,381.5C 253.5,388.833 253.5,396.167 253.5,403.5C 250.833,403.5 248.167,403.5 245.5,403.5C 245.5,386.5 245.5,369.5 245.5,352.5C 250.833,352.5 256.167,352.5 261.5,352.5 Z"/>
    </g>
    //Y
    <g>
        <path style="opacity:1" fill="#f8f8f8"
              d="M 281.5,352.5 C 283.221,358.834 285.054,365.167 287,371.5C 288.682,365.103 290.515,358.77 292.5,352.5C 295.385,352.194 298.052,352.527 300.5,353.5C 297.298,363.106 294.298,372.773 291.5,382.5C 291.5,389.5 291.5,396.5 291.5,403.5C 288.5,403.5 285.5,403.5 282.5,403.5C 282.5,397.833 282.5,392.167 282.5,386.5C 280.119,375.353 277.119,364.353 273.5,353.5C 275.948,352.527 278.615,352.194 281.5,352.5 Z"/>
    </g>
    //R internal
    <g>
        <path style="opacity:1" fill="#1a1a1a"
              d="M 258.5,359.5 C 261.586,360.654 262.919,362.988 262.5,366.5C 262.652,369.726 261.652,372.393 259.5,374.5C 257.833,374.5 256.167,374.5 254.5,374.5C 254.5,369.5 254.5,364.5 254.5,359.5C 255.833,359.5 257.167,359.5 258.5,359.5 Z"/>
    </g>
    //O internal
    <g>
        <path style="opacity:1" fill="#1a1a1a"
              d="M 224.5,358.5 C 227.368,358.085 229.535,359.085 231,361.5C 231.667,372.167 231.667,382.833 231,393.5C 228.822,397.065 226.156,397.399 223,394.5C 222.333,383.167 222.333,371.833 223,360.5C 223.717,359.956 224.217,359.289 224.5,358.5 Z"/>
    </g>
    //u
    <g>
        <path style="opacity:1" fill="#efefef"
              d="M 250.5,424.5 C 251.794,429.301 250.794,433.635 247.5,437.5C 241.183,447.004 232.849,449.504 222.5,445C 217.979,440.377 216.479,434.877 218,428.5C 218.837,426.993 220.004,426.493 221.5,427C 222.116,430.863 222.95,434.696 224,438.5C 227.256,440.429 230.756,440.929 234.5,440C 241.382,437.416 245.882,432.583 248,425.5C 248.671,424.748 249.504,424.414 250.5,424.5 Z"/>
    </g>
    //g
    <g>
        <path style="opacity:1" fill="#eeeeef"
              d="M 285.5,476.5 C 279.363,475.27 274.363,472.27 270.5,467.5C 268.519,462.83 269.519,458.997 273.5,456C 283.245,452.898 293.245,451.065 303.5,450.5C 303.628,446.119 303.295,441.785 302.5,437.5C 298.493,438.004 294.493,438.17 290.5,438C 286.056,435.889 285.389,432.889 288.5,429C 294.509,425.624 300.843,424.791 307.5,426.5C 307.5,427.5 307.5,428.5 307.5,429.5C 302.345,428.89 297.678,430.056 293.5,433C 297.121,432.595 300.787,432.595 304.5,433C 308.249,439.338 309.415,446.171 308,453.5C 306.325,467.007 298.825,474.674 285.5,476.5 Z"/>
    </g>
    //n
    <g>
        <path style="opacity:1" fill="#f0f0f0"
              d="M 275.5,427.5 C 280.98,432.996 282.98,439.663 281.5,447.5C 279.278,447.822 277.444,447.155 276,445.5C 275.855,441.477 275.021,437.644 273.5,434C 268.12,433.865 264.454,436.365 262.5,441.5C 259.717,444.351 257.384,444.017 255.5,440.5C 254.031,435.903 255.031,431.903 258.5,428.5C 261.246,431.134 263.912,431.134 266.5,428.5C 269.404,426.682 272.404,426.349 275.5,427.5 Z"/>
    </g>
    //e
    <g>
        <path style="opacity:1" fill="#f3f3f3"
              d="M 323.5,427.5 C 330.016,426.237 335.516,427.904 340,432.5C 340.758,434.769 340.591,436.936 339.5,439C 334.393,439.488 329.393,440.488 324.5,442C 327.927,443.76 331.594,444.926 335.5,445.5C 328.036,450.018 321.203,449.018 315,442.5C 313,439.5 313,436.5 315,433.5C 317.637,431.109 320.47,429.109 323.5,427.5 Z"/>
    </g>
    //e internal
    <g>
        <path style="opacity:1" fill="#1a1a1a"
              d="M 333.5,435.5 C 329.629,435.815 325.962,435.482 322.5,434.5C 324.29,433.003 326.456,432.336 329,432.5C 330.5,432.667 332,432.833 333.5,433C 334.774,433.977 334.774,434.811 333.5,435.5 Z"/>
    </g>
    <g>
        <path style="opacity:1" fill="#f1f1f1"
              d="M 196.5,425.5 C 208.281,423.135 214.114,427.802 214,439.5C 206.784,448.362 197.951,450.529 187.5,446C 182.839,442.359 181.673,437.859 184,432.5C 188.019,429.745 192.185,427.411 196.5,425.5 Z"/>
    </g>
    //o internal
    <g>
        <path style="opacity:1" fill="#1a1a1a"
              d="M 199.5,430.5 C 202.32,430.248 204.986,430.748 207.5,432C 208.576,433.726 208.743,435.559 208,437.5C 202.827,442.23 196.993,443.397 190.5,441C 188.789,439.867 188.289,438.367 189,436.5C 192.101,433.648 195.601,431.648 199.5,430.5 Z"/>
    </g>
    //L
    <g>
        <path style="opacity:1" fill="#eeeeef"
              d="M 135.5,447.5 C 133.14,446.135 131.473,444.135 130.5,441.5C 133.604,427.291 139.437,414.291 148,402.5C 149.11,400.963 150.61,400.297 152.5,400.5C 152.662,402.527 152.495,404.527 152,406.5C 144.673,416.816 139.839,428.149 137.5,440.5C 147.003,440.312 156.503,439.979 166,439.5C 170.944,439.388 175.777,439.888 180.5,441C 178.844,442.829 176.844,444.163 174.5,445C 161.536,446.459 148.536,447.292 135.5,447.5 Z"/>
    </g>
    //g internal
    <g>
        <path style="opacity:1" fill="#1a1a1a"
              d="M 298.5,452.5 C 299.833,452.5 301.167,452.5 302.5,452.5C 302.616,462.72 297.616,468.72 287.5,470.5C 282.991,469.836 278.991,468.003 275.5,465C 274.11,462.006 275.11,460.006 278.5,459C 285.471,457.387 292.138,455.22 298.5,452.5 Z"/>
    </g>
</svg>
