<?xml version="1.0" encoding="UTF-8"?>
<!DOCTYPE svg PUBLIC "-//W3C//DTD SVG 1.1//EN" "http://www.w3.org/Graphics/SVG/1.1/DTD/svg11.dtd">
<svg xmlns="http://www.w3.org/2000/svg" version="1.1" width="282px" height="338px" style="shape-rendering:geometricPrecision; text-rendering:geometricPrecision; image-rendering:optimizeQuality; fill-rule:evenodd; clip-rule:evenodd" xmlns:xlink="http://www.w3.org/1999/xlink">
<g><path style="opacity:1" fill="#564b21" d="M 169.5,0.5 C 176.833,0.5 184.167,0.5 191.5,0.5C 197.099,10.0331 202.433,19.6997 207.5,29.5C 198.525,30.8317 189.191,31.4984 179.5,31.5C 169.809,31.4984 160.475,30.8317 151.5,29.5C 157.239,19.6936 163.239,10.0269 169.5,0.5 Z"/></g>
<g><path style="opacity:1" fill="#554a20" d="M 210.5,0.5 C 225.167,0.5 239.833,0.5 254.5,0.5C 287.25,87.0809 276.083,167.414 221,241.5C 172.047,300.472 109.047,330.472 32,331.5C 21.4431,331.565 10.9431,330.899 0.5,329.5C 0.5,316.167 0.5,302.833 0.5,289.5C 3.09609,290.265 5.76275,290.599 8.5,290.5C 16.2684,292.058 24.2684,292.724 32.5,292.5C 38.6762,292.5 44.6762,292.166 50.5,291.5C 126.692,282.161 181.859,243.161 216,174.5C 239.333,119.835 239.333,65.1683 216,10.5C 214.408,6.97893 212.575,3.6456 210.5,0.5 Z"/></g>
<g><path style="opacity:1" fill="#544920" d="M 208.5,41.5 C 209.931,41.8807 210.764,42.8807 211,44.5C 214.201,61.7423 216.701,79.0756 218.5,96.5C 201.121,90.7066 183.787,84.7066 166.5,78.5C 165.602,77.8423 164.602,77.1757 163.5,76.5C 178.711,65.0663 193.711,53.3996 208.5,41.5 Z"/></g>
<g><path style="opacity:1" fill="#554a20" d="M 155.5,191.5 C 151.45,183.068 147.116,174.734 142.5,166.5C 144.134,165.839 145.967,165.506 148,165.5C 165.5,166.859 183,168.192 200.5,169.5C 190.894,185.103 180.894,200.437 170.5,215.5C 165.129,207.697 160.129,199.697 155.5,191.5 Z"/></g>
<g><path style="opacity:1" fill="#544920" d="M 157.5,219.5 C 159.568,220.375 161.568,221.541 163.5,223C 148.359,233.974 133.359,245.141 118.5,256.5C 115.891,240.362 113.224,224.362 110.5,208.5C 109.808,205.103 109.808,201.77 110.5,198.5C 125.872,206.072 141.539,213.072 157.5,219.5 Z"/></g>
<g><path style="opacity:1" fill="#544920" d="M 0.5,273.5 C 0.5,266.833 0.5,260.167 0.5,253.5C 7.73744,243.368 14.7374,233.035 21.5,222.5C 30.2836,239.867 38.2836,257.534 45.5,275.5C 30.5205,274.406 15.5205,273.74 0.5,273.5 Z"/></g>
<g><path style="opacity:1" fill="#544920" d="M 69.5,219.5 C 82.4787,232.813 95.4787,246.146 108.5,259.5C 91.2474,265.028 73.9141,270.361 56.5,275.5C 56.1667,274.833 55.8333,274.167 55.5,273.5C 58.5034,258.822 61.5034,244.155 64.5,229.5C 65.5541,225.836 66.7208,222.169 68,218.5C 68.3826,219.056 68.8826,219.389 69.5,219.5 Z"/></g>
<g><path style="opacity:1" fill="#554b21" d="M 211.5,106.5 C 213.167,106.5 214.833,106.5 216.5,106.5C 212.856,124.888 209.022,143.222 205,161.5C 190.167,148.667 175.333,135.833 160.5,123C 177.817,118.094 194.817,112.594 211.5,106.5 Z"/></g>
</svg>
