<?xml version="1.0" encoding="UTF-8"?>
<!DOCTYPE svg PUBLIC "-//W3C//DTD SVG 1.1//EN" "http://www.w3.org/Graphics/SVG/1.1/DTD/svg11.dtd">
<svg xmlns="http://www.w3.org/2000/svg" version="1.1" width="365px" height="334px" style="shape-rendering:geometricPrecision; text-rendering:geometricPrecision; image-rendering:optimizeQuality; fill-rule:evenodd; clip-rule:evenodd" xmlns:xlink="http://www.w3.org/1999/xlink">

<g><path style="opacity:1" fill="#584d24" d="M 221.5,41.5 C 220.542,41.9528 219.708,42.6195 219,43.5C 218.667,43.1667 218.333,42.8333 218,42.5C 217.604,45.6964 216.438,48.5297 214.5,51C 214.833,51.3333 215.167,51.6667 215.5,52C 212.277,54.5407 208.61,56.0407 204.5,56.5C 203.007,57.1411 202.007,58.1411 201.5,59.5C 200.833,59.1667 200.167,58.8333 199.5,58.5C 194.536,53.0353 189.37,47.702 184,42.5C 169.965,56.3681 156.131,70.3681 142.5,84.5C 131.167,95.1667 120.167,106.167 109.5,117.5C 92.8543,133.479 76.521,149.812 60.5,166.5C 66.1883,172.52 71.8549,178.52 77.5,184.5C 72.0517,183.975 67.8851,185.975 65,190.5C 64.6667,189.833 64.3333,189.167 64,188.5C 62.6796,188.799 61.1796,188.966 59.5,189C 58.2138,191.093 56.7138,192.927 55,194.5C 52.7558,194.133 52.2558,193.133 53.5,191.5C 50.87,190.038 48.37,188.371 46,186.5C 44.9614,187.244 44.4614,188.244 44.5,189.5C 43.5,188.833 42.5,188.167 41.5,187.5C 34.8549,180.52 28.1882,173.52 21.5,166.5C 40.8545,146.813 60.1878,127.146 79.5,107.5C 96.8333,90.8333 113.833,73.8333 130.5,56.5C 148.465,39.0351 166.299,21.3684 184,3.5C 196.702,16.0348 209.202,28.7015 221.5,41.5 Z"/></g>
<g><path style="opacity:1" fill="#5f5329" d="M 221.5,41.5 C 221.833,41.5 222.167,41.5 222.5,41.5C 227.5,47.1667 232.833,52.5 238.5,57.5C 239.167,58.8333 240.167,59.8333 241.5,60.5C 242.5,62.1667 243.833,63.5 245.5,64.5C 245.5,64.8333 245.5,65.1667 245.5,65.5C 243.97,66.0668 242.47,66.7334 241,67.5C 239.926,66.3816 238.76,65.3816 237.5,64.5C 238.025,63.8076 238.692,63.3076 239.5,63C 238.584,62.6258 237.75,62.1258 237,61.5C 233.847,66.319 230.013,70.4857 225.5,74C 227.787,73.0425 229.453,73.8758 230.5,76.5C 230.291,77.086 229.957,77.586 229.5,78C 232.408,80.3138 233.075,83.1471 231.5,86.5C 233.199,86.3398 234.866,86.5065 236.5,87C 234.347,87.0995 232.681,87.9328 231.5,89.5C 221.167,79.8333 211.167,69.8333 201.5,59.5C 202.007,58.1411 203.007,57.1411 204.5,56.5C 208.61,56.0407 212.277,54.5407 215.5,52C 215.167,51.6667 214.833,51.3333 214.5,51C 216.438,48.5297 217.604,45.6964 218,42.5C 218.333,42.8333 218.667,43.1667 219,43.5C 219.708,42.6195 220.542,41.9528 221.5,41.5 Z"/></g>
<g><path style="opacity:1" fill="#594e23" d="M 192.5,65.5 C 193.167,66.5 193.833,67.5 194.5,68.5C 192.946,69.9142 191.612,71.5808 190.5,73.5C 188.577,74.3078 186.577,74.8078 184.5,75C 182.173,78.0936 179.673,80.9269 177,83.5C 175.893,86.983 176.893,89.6496 180,91.5C 181.054,90.5176 181.554,89.3509 181.5,88C 183.333,86.8333 185.167,85.6667 187,84.5C 187.167,85 187.333,85.5 187.5,86C 185.5,87.9779 183.167,90.3113 180.5,93C 181.634,94.016 181.301,94.6827 179.5,95C 180.066,95.9947 180.733,96.828 181.5,97.5C 179.167,100.167 176.833,102.833 174.5,105.5C 154.535,124.965 134.701,144.632 115,164.5C 114.333,165.5 114.333,166.5 115,167.5C 121.703,174.035 128.203,180.702 134.5,187.5C 131.171,187.002 128.005,186.002 125,184.5C 117.281,185.398 109.447,185.398 101.5,184.5C 99.1309,184.595 97.4642,185.595 96.5,187.5C 95.1667,186.5 93.8333,185.5 92.5,184.5C 86.8549,178.52 81.1883,172.52 75.5,166.5C 90.1879,151.479 104.855,136.479 119.5,121.5C 128.5,113.167 137.167,104.5 145.5,95.5C 158.465,83.0353 171.298,70.3686 184,57.5C 186.703,60.3714 189.536,63.0381 192.5,65.5 Z"/></g>
<g><path style="opacity:1" fill="#5f5329" d="M 194.5,68.5 C 207.5,81.1667 220.5,93.8333 233.5,106.5C 234.833,108.167 236.167,109.833 237.5,111.5C 235.889,113.361 233.889,114.861 231.5,116C 229.152,118.562 227.318,121.395 226,124.5C 225.346,123.304 224.846,123.304 224.5,124.5C 225.167,125.5 225.833,126.5 226.5,127.5C 225.689,128.216 225.022,129.05 224.5,130C 226.343,132.542 227.343,135.375 227.5,138.5C 222.833,134.167 218.167,129.833 213.5,125.5C 204.369,115.868 195.036,106.368 185.5,97C 184.072,96.4209 182.738,96.5876 181.5,97.5C 180.733,96.828 180.066,95.9947 179.5,95C 181.301,94.6827 181.634,94.016 180.5,93C 183.167,90.3113 185.5,87.9779 187.5,86C 187.333,85.5 187.167,85 187,84.5C 185.167,85.6667 183.333,86.8333 181.5,88C 181.554,89.3509 181.054,90.5176 180,91.5C 176.893,89.6496 175.893,86.983 177,83.5C 179.673,80.9269 182.173,78.0936 184.5,75C 186.577,74.8078 188.577,74.3078 190.5,73.5C 191.612,71.5808 192.946,69.9142 194.5,68.5 Z"/></g>
<g><path style="opacity:1" fill="#62562d" d="M 245.5,65.5 C 259.833,79.5 274.167,93.5 288.5,107.5C 288.833,108.167 289.167,108.833 289.5,109.5C 284.929,110.683 280.596,110.016 276.5,107.5C 275.914,107.709 275.414,108.043 275,108.5C 272.517,103.93 268.683,102.43 263.5,104C 262.167,105 262.167,106 263.5,107C 262.128,107.631 260.795,108.298 259.5,109C 261.114,110.754 262.447,112.754 263.5,115C 262.978,115.561 262.645,116.228 262.5,117C 263.769,119.084 264.769,121.251 265.5,123.5C 258.167,116.5 250.833,109.5 243.5,102.5C 239.5,98.1667 235.5,93.8333 231.5,89.5C 232.681,87.9328 234.347,87.0995 236.5,87C 234.866,86.5065 233.199,86.3398 231.5,86.5C 233.075,83.1471 232.408,80.3138 229.5,78C 229.957,77.586 230.291,77.086 230.5,76.5C 229.453,73.8758 227.787,73.0425 225.5,74C 230.013,70.4857 233.847,66.319 237,61.5C 237.75,62.1258 238.584,62.6258 239.5,63C 238.692,63.3076 238.025,63.8076 237.5,64.5C 238.76,65.3816 239.926,66.3816 241,67.5C 242.47,66.7334 243.97,66.0668 245.5,65.5 Z"/></g>
<g><path style="opacity:1" fill="#665b32" d="M 289.5,109.5 C 295.167,114.5 300.5,119.833 305.5,125.5C 304.957,125.56 304.624,125.893 304.5,126.5C 306.954,130.622 308.954,134.955 310.5,139.5C 309.603,142.565 307.603,144.398 304.5,145C 302.654,147.015 300.987,149.181 299.5,151.5C 297.271,149.447 294.938,149.114 292.5,150.5C 291.833,150.167 291.167,149.833 290.5,149.5C 282.167,140.833 273.833,132.167 265.5,123.5C 264.769,121.251 263.769,119.084 262.5,117C 262.645,116.228 262.978,115.561 263.5,115C 262.447,112.754 261.114,110.754 259.5,109C 260.795,108.298 262.128,107.631 263.5,107C 262.167,106 262.167,105 263.5,104C 268.683,102.43 272.517,103.93 275,108.5C 275.414,108.043 275.914,107.709 276.5,107.5C 280.596,110.016 284.929,110.683 289.5,109.5 Z"/></g>
<g><path style="opacity:1" fill="#25282b" d="M 243.5,102.5 C 250.833,109.5 258.167,116.5 265.5,123.5C 273.833,132.167 282.167,140.833 290.5,149.5C 289.374,151.5 289.207,153.5 290,155.5C 287.959,156.423 285.792,156.756 283.5,156.5C 268.167,141.5 252.833,126.5 237.5,111.5C 236.167,109.833 234.833,108.167 233.5,106.5C 235.137,107.218 236.803,107.384 238.5,107C 239.161,104.328 240.828,102.828 243.5,102.5 Z"/></g>
<g><path style="opacity:1" fill="#685e35" d="M 305.5,125.5 C 305.833,125.5 306.167,125.5 306.5,125.5C 314.167,133.5 321.833,141.5 329.5,149.5C 329.052,152.487 327.552,153.487 325,152.5C 324.833,153.167 324.667,153.833 324.5,154.5C 326.424,158.017 328.091,161.684 329.5,165.5C 332.45,166.488 335.45,167.321 338.5,168C 336.892,168.469 335.225,169.135 333.5,170C 333.357,172.435 333.69,174.935 334.5,177.5C 332.57,181.1 329.903,184.1 326.5,186.5C 326.687,184.436 327.187,182.436 328,180.5C 328.414,180.957 328.914,181.291 329.5,181.5C 330.456,180.135 331.122,178.635 331.5,177C 329.793,175.268 329.127,173.435 329.5,171.5C 328.624,170.749 327.624,170.249 326.5,170C 326.377,168.211 326.377,166.378 326.5,164.5C 325.372,163.738 324.205,163.071 323,162.5C 321.54,166.971 319.207,170.971 316,174.5C 312.537,175.652 309.371,177.319 306.5,179.5C 306.709,180.086 307.043,180.586 307.5,181C 305.659,182.866 303.992,184.866 302.5,187C 303.552,188.716 302.886,189.716 300.5,190C 300.833,190.333 301.167,190.667 301.5,191C 300.692,191.308 300.025,191.808 299.5,192.5C 300.95,193.85 301.617,195.516 301.5,197.5C 305.406,195.453 307.739,196.62 308.5,201C 307.663,202.011 307.33,203.178 307.5,204.5C 306.833,205.833 306.167,207.167 305.5,208.5C 302.167,211.5 298.833,214.5 295.5,217.5C 295.631,216.624 295.298,215.957 294.5,215.5C 293.281,216.263 292.281,217.263 291.5,218.5C 289.378,217.573 287.045,217.573 284.5,218.5C 284.218,213.421 283.218,213.254 281.5,218C 282.357,218.689 283.023,219.522 283.5,220.5C 282.15,220.432 280.816,220.432 279.5,220.5C 277.33,218.294 277.33,216.294 279.5,214.5C 278.5,213.833 277.5,213.167 276.5,212.5C 278.736,209.709 281.402,207.376 284.5,205.5C 284.023,204.522 283.357,203.689 282.5,203C 283.833,202.667 285.167,202.333 286.5,202C 284.016,199.716 283.849,197.216 286,194.5C 288.112,193.777 290.112,192.777 292,191.5C 295.004,192.576 297.337,191.576 299,188.5C 298.715,184.969 298.549,181.469 298.5,178C 299.823,177.184 300.489,176.017 300.5,174.5C 302.811,171.853 305.144,169.186 307.5,166.5C 302.478,161.146 297.478,155.813 292.5,150.5C 294.938,149.114 297.271,149.447 299.5,151.5C 300.987,149.181 302.654,147.015 304.5,145C 307.603,144.398 309.603,142.565 310.5,139.5C 308.954,134.955 306.954,130.622 304.5,126.5C 304.624,125.893 304.957,125.56 305.5,125.5 Z"/></g>
<g><path style="opacity:1" fill="#655930" d="M 237.5,111.5 C 252.833,126.5 268.167,141.5 283.5,156.5C 286.478,159.813 289.478,163.147 292.5,166.5C 291.143,168.186 289.81,169.852 288.5,171.5C 287.5,172.167 286.5,172.833 285.5,173.5C 281.829,172.855 278.162,172.521 274.5,172.5C 271.681,176.492 269.514,180.825 268,185.5C 267.667,185.167 267.333,184.833 267,184.5C 264.763,186.647 262.763,188.98 261,191.5C 259.32,187.763 257.486,184.763 255.5,182.5C 253.657,181.061 251.99,181.228 250.5,183C 251.536,184.617 252.703,184.784 254,183.5C 255.163,185.285 255.83,187.285 256,189.5C 256.654,188.304 257.154,188.304 257.5,189.5C 257.023,190.478 256.357,191.311 255.5,192C 255.821,193.937 254.821,195.437 252.5,196.5C 251.914,196.291 251.414,195.957 251,195.5C 250.544,196.744 251.044,197.577 252.5,198C 251.874,198.75 251.374,199.584 251,200.5C 248.353,198.042 246.853,198.875 246.5,203C 246.645,203.772 246.978,204.439 247.5,205C 246.088,206.306 244.421,207.14 242.5,207.5C 239.179,205.528 235.679,203.862 232,202.5C 231.346,199.992 230.179,197.826 228.5,196C 229.38,194.644 229.714,193.144 229.5,191.5C 229.5,191.167 229.5,190.833 229.5,190.5C 231.833,188.833 233.833,186.833 235.5,184.5C 242.008,178.825 248.008,172.658 253.5,166C 248.008,159.342 242.008,153.175 235.5,147.5C 233.167,144.5 230.5,141.833 227.5,139.5C 227.5,139.167 227.5,138.833 227.5,138.5C 227.343,135.375 226.343,132.542 224.5,130C 225.022,129.05 225.689,128.216 226.5,127.5C 225.833,126.5 225.167,125.5 224.5,124.5C 224.846,123.304 225.346,123.304 226,124.5C 227.318,121.395 229.152,118.562 231.5,116C 233.889,114.861 235.889,113.361 237.5,111.5 Z"/></g>
<g><path style="opacity:1" fill="#645932" d="M 329.5,149.5 C 329.833,149.5 330.167,149.5 330.5,149.5C 335.812,155.146 341.145,160.813 346.5,166.5C 343.478,169.853 340.478,173.187 337.5,176.5C 337.167,176.5 336.833,176.5 336.5,176.5C 335.833,176.833 335.167,177.167 334.5,177.5C 333.69,174.935 333.357,172.435 333.5,170C 335.225,169.135 336.892,168.469 338.5,168C 335.45,167.321 332.45,166.488 329.5,165.5C 328.091,161.684 326.424,158.017 324.5,154.5C 324.667,153.833 324.833,153.167 325,152.5C 327.552,153.487 329.052,152.487 329.5,149.5 Z"/></g>
<g><path style="opacity:1" fill="#6d633b" d="M 326.5,186.5 C 320.477,191.875 314.81,197.708 309.5,204C 308.906,204.464 308.239,204.631 307.5,204.5C 307.33,203.178 307.663,202.011 308.5,201C 307.739,196.62 305.406,195.453 301.5,197.5C 301.617,195.516 300.95,193.85 299.5,192.5C 300.025,191.808 300.692,191.308 301.5,191C 301.167,190.667 300.833,190.333 300.5,190C 302.886,189.716 303.552,188.716 302.5,187C 303.992,184.866 305.659,182.866 307.5,181C 307.043,180.586 306.709,180.086 306.5,179.5C 309.371,177.319 312.537,175.652 316,174.5C 319.207,170.971 321.54,166.971 323,162.5C 324.205,163.071 325.372,163.738 326.5,164.5C 326.377,166.378 326.377,168.211 326.5,170C 327.624,170.249 328.624,170.749 329.5,171.5C 329.127,173.435 329.793,175.268 331.5,177C 331.122,178.635 330.456,180.135 329.5,181.5C 328.914,181.291 328.414,180.957 328,180.5C 327.187,182.436 326.687,184.436 326.5,186.5 Z"/></g>
<g><path style="opacity:1" fill="#64582f" d="M 300.5,174.5 C 300.489,176.017 299.823,177.184 298.5,178C 298.549,181.469 298.715,184.969 299,188.5C 297.337,191.576 295.004,192.576 292,191.5C 290.112,192.777 288.112,193.777 286,194.5C 283.849,197.216 284.016,199.716 286.5,202C 285.167,202.333 283.833,202.667 282.5,203C 283.357,203.689 284.023,204.522 284.5,205.5C 281.402,207.376 278.736,209.709 276.5,212.5C 277.5,213.167 278.5,213.833 279.5,214.5C 277.33,216.294 277.33,218.294 279.5,220.5C 280.816,220.432 282.15,220.432 283.5,220.5C 283.023,219.522 282.357,218.689 281.5,218C 283.218,213.254 284.218,213.421 284.5,218.5C 287.045,217.573 289.378,217.573 291.5,218.5C 292.281,217.263 293.281,216.263 294.5,215.5C 295.298,215.957 295.631,216.624 295.5,217.5C 295.5,217.833 295.5,218.167 295.5,218.5C 290.833,222.833 286.167,227.167 281.5,231.5C 280.504,231.586 279.671,231.252 279,230.5C 278.612,231.428 277.945,232.095 277,232.5C 275.37,231.287 273.536,230.454 271.5,230C 265.871,222.298 266.205,215.465 272.5,209.5C 271.54,208.188 271.706,206.854 273,205.5C 273.333,206.167 273.667,206.833 274,207.5C 274.5,206.333 275.333,205.5 276.5,205C 274.893,203.951 274.227,202.451 274.5,200.5C 279.5,195.167 284.5,189.833 289.5,184.5C 291.833,182.833 293.833,180.833 295.5,178.5C 297.167,177.167 298.833,175.833 300.5,174.5 Z"/></g>
<g><path style="opacity:1" fill="#5f5329" d="M 134.5,187.5 C 136.833,189.5 139.167,191.5 141.5,193.5C 141.833,194.5 142.5,195.167 143.5,195.5C 149.5,202.167 155.833,208.5 162.5,214.5C 163.5,215.833 164.5,217.167 165.5,218.5C 161.6,218.561 157.766,218.228 154,217.5C 149.846,219.99 146.346,223.157 143.5,227C 147.389,230.095 148.722,233.929 147.5,238.5C 143.833,235.167 140.167,231.833 136.5,228.5C 128.5,219.833 120.167,211.5 111.5,203.5C 108.167,199.5 104.5,195.833 100.5,192.5C 99.1667,190.833 97.8333,189.167 96.5,187.5C 97.4642,185.595 99.1309,184.595 101.5,184.5C 109.447,185.398 117.281,185.398 125,184.5C 128.005,186.002 131.171,187.002 134.5,187.5 Z"/></g>
<g><path style="opacity:1" fill="#5d5128" d="M 77.5,184.5 C 78.1667,184.833 78.8333,185.167 79.5,185.5C 82.5,189.167 85.8333,192.5 89.5,195.5C 89.8333,196.167 90.1667,196.833 90.5,197.5C 89.2463,199.357 89.2463,201.357 90.5,203.5C 89.1103,205.169 88.7769,206.836 89.5,208.5C 85.4925,210.302 81.8259,212.636 78.5,215.5C 76.545,217.692 76.2117,220.025 77.5,222.5C 77.1667,222.5 76.8333,222.5 76.5,222.5C 73.1667,218.5 69.5,214.833 65.5,211.5C 63.5,208.833 61.1667,206.5 58.5,204.5C 53.8333,199.5 49.1667,194.5 44.5,189.5C 44.4614,188.244 44.9614,187.244 46,186.5C 48.37,188.371 50.87,190.038 53.5,191.5C 52.2558,193.133 52.7558,194.133 55,194.5C 56.7138,192.927 58.2138,191.093 59.5,189C 61.1796,188.966 62.6796,188.799 64,188.5C 64.3333,189.167 64.6667,189.833 65,190.5C 67.8851,185.975 72.0517,183.975 77.5,184.5 Z"/></g>
<g><path style="opacity:1" fill="#5e5229" d="M 285.5,173.5 C 284.833,174.5 284.167,175.5 283.5,176.5C 271.167,188.167 259.167,200.167 247.5,212.5C 240.167,219.167 233.167,226.167 226.5,233.5C 220.5,238.833 214.833,244.5 209.5,250.5C 200.868,258.631 192.368,266.964 184,275.5C 176.965,268.297 169.798,261.297 162.5,254.5C 162.167,253.833 161.833,253.167 161.5,252.5C 162.822,252.67 163.989,252.337 165,251.5C 165.458,255.648 167.291,256.481 170.5,254C 169.833,253.333 169.167,252.667 168.5,252C 170.132,250.69 171.799,250.19 173.5,250.5C 172.675,249.614 171.675,249.281 170.5,249.5C 170.36,247.876 171.027,246.71 172.5,246C 179.386,244.634 180.386,245.634 175.5,249C 178.38,249.848 180.88,251.348 183,253.5C 183.175,256.157 183.008,258.824 182.5,261.5C 185.628,260.308 187.628,257.975 188.5,254.5C 188.081,253.328 187.415,252.328 186.5,251.5C 187.693,247.584 189.193,244.25 191,241.5C 193.996,245.741 196.83,250.075 199.5,254.5C 201.876,253.421 202.043,252.088 200,250.5C 199.11,247.294 199.443,244.294 201,241.5C 202.734,242.249 204.567,242.749 206.5,243C 207.833,243.667 207.833,244.333 206.5,245C 207.877,246.241 209.21,246.408 210.5,245.5C 208.009,244.459 208.009,243.626 210.5,243C 209.61,239.778 210.944,237.778 214.5,237C 213.167,236.333 213.167,235.667 214.5,235C 215.448,234.517 216.448,234.351 217.5,234.5C 217.64,232.876 216.973,231.71 215.5,231C 217.498,228.518 218.832,225.685 219.5,222.5C 220.425,221.359 221.259,221.359 222,222.5C 222.497,220.19 222.663,217.857 222.5,215.5C 221.448,215.649 220.448,215.483 219.5,215C 220.804,214.196 221.471,213.029 221.5,211.5C 220.503,209.085 219.003,207.085 217,205.5C 215.513,206.253 215.346,207.086 216.5,208C 214.939,208.318 213.772,209.151 213,210.5C 212.617,209.944 212.117,209.611 211.5,209.5C 212.167,208.5 212.833,207.5 213.5,206.5C 219.041,201.784 224.374,196.784 229.5,191.5C 229.714,193.144 229.38,194.644 228.5,196C 230.179,197.826 231.346,199.992 232,202.5C 235.679,203.862 239.179,205.528 242.5,207.5C 244.421,207.14 246.088,206.306 247.5,205C 246.978,204.439 246.645,203.772 246.5,203C 246.853,198.875 248.353,198.042 251,200.5C 251.374,199.584 251.874,198.75 252.5,198C 251.044,197.577 250.544,196.744 251,195.5C 251.414,195.957 251.914,196.291 252.5,196.5C 254.821,195.437 255.821,193.937 255.5,192C 256.357,191.311 257.023,190.478 257.5,189.5C 257.154,188.304 256.654,188.304 256,189.5C 255.83,187.285 255.163,185.285 254,183.5C 252.703,184.784 251.536,184.617 250.5,183C 251.99,181.228 253.657,181.061 255.5,182.5C 257.486,184.763 259.32,187.763 261,191.5C 262.763,188.98 264.763,186.647 267,184.5C 267.333,184.833 267.667,185.167 268,185.5C 269.514,180.825 271.681,176.492 274.5,172.5C 278.162,172.521 281.829,172.855 285.5,173.5 Z"/></g>
<g><path style="opacity:1" fill="#685c33" d="M 99.5,244.5 C 92.1667,237.833 85.1667,230.833 78.5,223.5C 78.5,222.5 78.5,221.5 78.5,220.5C 81.2919,220.548 83.1253,219.215 84,216.5C 84.9147,217.328 85.5814,218.328 86,219.5C 87.1937,217.377 87.8603,215.043 88,212.5C 90.3243,213.845 92.6577,214.178 95,213.5C 96.1581,213.998 96.9915,214.831 97.5,216C 95.628,217.974 95.2947,220.141 96.5,222.5C 98.2279,224.226 100.228,225.559 102.5,226.5C 103.192,225.975 103.692,225.308 104,224.5C 105.667,226.5 107.333,228.5 109,230.5C 109.333,229.5 109.667,228.5 110,227.5C 110.311,229.705 111.144,231.705 112.5,233.5C 111.946,235.628 110.613,237.128 108.5,238C 110.43,239.92 112.096,242.087 113.5,244.5C 112.372,245.262 111.205,245.929 110,246.5C 106.545,245.713 103.045,245.046 99.5,244.5 Z"/></g>
<g><path style="opacity:1" fill="#5b5026" d="M 274.5,200.5 C 274.227,202.451 274.893,203.951 276.5,205C 275.333,205.5 274.5,206.333 274,207.5C 273.667,206.833 273.333,206.167 273,205.5C 271.706,206.854 271.54,208.188 272.5,209.5C 266.205,215.465 265.871,222.298 271.5,230C 273.536,230.454 275.37,231.287 277,232.5C 277.945,232.095 278.612,231.428 279,230.5C 279.671,231.252 280.504,231.586 281.5,231.5C 281.167,232.167 280.833,232.833 280.5,233.5C 278.5,234.833 276.833,236.5 275.5,238.5C 268.833,244.833 262.167,251.167 255.5,257.5C 254.82,255.61 254.653,253.61 255,251.5C 253.493,247.764 252.66,247.764 252.5,251.5C 248.326,249.782 244.16,248.115 240,246.5C 236.491,245.214 232.658,245.214 228.5,246.5C 229.167,245.5 229.833,244.5 230.5,243.5C 240.167,234.5 249.5,225.167 258.5,215.5C 263.833,210.5 269.167,205.5 274.5,200.5 Z"/></g>
<g><path style="opacity:1" fill="#63572e" d="M 90.5,197.5 C 93.8333,200.5 97.1667,203.5 100.5,206.5C 108.167,214.833 116.167,222.833 124.5,230.5C 126.833,233.167 129.167,235.833 131.5,238.5C 129.708,240.461 127.542,241.795 125,242.5C 123.635,242.156 122.468,241.489 121.5,240.5C 119.809,245.022 117.143,248.855 113.5,252C 114.293,253.085 114.96,254.252 115.5,255.5C 114.465,257.128 114.465,258.795 115.5,260.5C 114.5,259.833 113.5,259.167 112.5,258.5C 109.833,255.167 106.833,252.167 103.5,249.5C 102.5,247.833 101.167,246.5 99.5,245.5C 99.5,245.167 99.5,244.833 99.5,244.5C 103.045,245.046 106.545,245.713 110,246.5C 111.205,245.929 112.372,245.262 113.5,244.5C 112.096,242.087 110.43,239.92 108.5,238C 110.613,237.128 111.946,235.628 112.5,233.5C 111.144,231.705 110.311,229.705 110,227.5C 109.667,228.5 109.333,229.5 109,230.5C 107.333,228.5 105.667,226.5 104,224.5C 103.692,225.308 103.192,225.975 102.5,226.5C 100.228,225.559 98.2279,224.226 96.5,222.5C 95.2947,220.141 95.628,217.974 97.5,216C 96.9915,214.831 96.1581,213.998 95,213.5C 92.6577,214.178 90.3243,213.845 88,212.5C 87.8603,215.043 87.1937,217.377 86,219.5C 85.5814,218.328 84.9147,217.328 84,216.5C 83.1253,219.215 81.2919,220.548 78.5,220.5C 78.5,221.5 78.5,222.5 78.5,223.5C 77.8333,223.5 77.5,223.167 77.5,222.5C 76.2117,220.025 76.545,217.692 78.5,215.5C 81.8259,212.636 85.4925,210.302 89.5,208.5C 88.7769,206.836 89.1103,205.169 90.5,203.5C 89.2463,201.357 89.2463,199.357 90.5,197.5 Z"/></g>
<g><path style="opacity:1" fill="#64572d" d="M 161.5,252.5 C 156.5,248.167 151.833,243.5 147.5,238.5C 148.722,233.929 147.389,230.095 143.5,227C 146.346,223.157 149.846,219.99 154,217.5C 157.766,218.228 161.6,218.561 165.5,218.5C 171.798,224.297 177.965,230.297 184,236.5C 192.981,227.352 202.148,218.352 211.5,209.5C 212.117,209.611 212.617,209.944 213,210.5C 213.772,209.151 214.939,208.318 216.5,208C 215.346,207.086 215.513,206.253 217,205.5C 219.003,207.085 220.503,209.085 221.5,211.5C 221.471,213.029 220.804,214.196 219.5,215C 220.448,215.483 221.448,215.649 222.5,215.5C 222.663,217.857 222.497,220.19 222,222.5C 221.259,221.359 220.425,221.359 219.5,222.5C 218.832,225.685 217.498,228.518 215.5,231C 216.973,231.71 217.64,232.876 217.5,234.5C 216.448,234.351 215.448,234.517 214.5,235C 213.167,235.667 213.167,236.333 214.5,237C 210.944,237.778 209.61,239.778 210.5,243C 208.009,243.626 208.009,244.459 210.5,245.5C 209.21,246.408 207.877,246.241 206.5,245C 207.833,244.333 207.833,243.667 206.5,243C 204.567,242.749 202.734,242.249 201,241.5C 199.443,244.294 199.11,247.294 200,250.5C 202.043,252.088 201.876,253.421 199.5,254.5C 196.83,250.075 193.996,245.741 191,241.5C 189.193,244.25 187.693,247.584 186.5,251.5C 187.415,252.328 188.081,253.328 188.5,254.5C 187.628,257.975 185.628,260.308 182.5,261.5C 183.008,258.824 183.175,256.157 183,253.5C 180.88,251.348 178.38,249.848 175.5,249C 180.386,245.634 179.386,244.634 172.5,246C 171.027,246.71 170.36,247.876 170.5,249.5C 171.675,249.281 172.675,249.614 173.5,250.5C 171.799,250.19 170.132,250.69 168.5,252C 169.167,252.667 169.833,253.333 170.5,254C 167.291,256.481 165.458,255.648 165,251.5C 163.989,252.337 162.822,252.67 161.5,252.5 Z"/></g>
<g><path style="opacity:1" fill="#665930" d="M 131.5,238.5 C 141.5,247.833 151.167,257.5 160.5,267.5C 159.789,271.325 160.955,274.325 164,276.5C 165.04,281.579 166.373,286.579 168,291.5C 169.065,294.676 171.231,296.676 174.5,297.5C 172.955,298.452 171.288,298.785 169.5,298.5C 169.785,300.288 169.452,301.955 168.5,303.5C 168.346,302.091 168.179,300.424 168,298.5C 167.033,299.678 166.533,301.011 166.5,302.5C 165.226,304.451 163.56,305.785 161.5,306.5C 158.167,303.5 154.833,300.5 151.5,297.5C 147.833,293.167 143.833,289.167 139.5,285.5C 131.5,277.167 123.5,268.833 115.5,260.5C 114.465,258.795 114.465,257.128 115.5,255.5C 114.96,254.252 114.293,253.085 113.5,252C 117.143,248.855 119.809,245.022 121.5,240.5C 122.468,241.489 123.635,242.156 125,242.5C 127.542,241.795 129.708,240.461 131.5,238.5 Z"/></g>
<g><path style="opacity:1" fill="#5f532a" d="M 255.5,257.5 C 250.167,263.167 244.833,268.833 239.5,274.5C 228.833,284.5 218.5,294.833 208.5,305.5C 206.5,306.833 204.833,308.5 203.5,310.5C 200.833,312.833 198.167,315.167 195.5,317.5C 195.586,316.504 195.252,315.671 194.5,315C 196.349,313.907 198.016,312.574 199.5,311C 198.451,310.508 197.451,310.674 196.5,311.5C 196.167,311 195.833,310.5 195.5,310C 196.289,308.374 197.289,306.874 198.5,305.5C 198.333,305.167 198.167,304.833 198,304.5C 196.13,306.219 193.963,307.219 191.5,307.5C 191.5,308.5 191.5,309.5 191.5,310.5C 188.333,310.834 185.333,310.834 182.5,310.5C 183.95,306.19 186.116,302.19 189,298.5C 193.121,296.424 192.621,294.591 187.5,293C 188.872,292.598 190.205,292.098 191.5,291.5C 192.696,291.846 192.696,292.346 191.5,293C 192.167,293.667 192.833,293.667 193.5,293C 194.554,291.612 194.72,290.112 194,288.5C 189.797,290.676 185.297,291.842 180.5,292C 180.962,293.722 181.128,295.555 181,297.5C 181.75,298.126 182.584,298.626 183.5,299C 180.859,301.786 180.192,304.952 181.5,308.5C 178.879,310.813 175.879,312.147 172.5,312.5C 172.5,314.167 172.5,315.833 172.5,317.5C 171.833,317.167 171.167,316.833 170.5,316.5C 167.5,313.167 164.5,309.833 161.5,306.5C 163.56,305.785 165.226,304.451 166.5,302.5C 166.533,301.011 167.033,299.678 168,298.5C 168.179,300.424 168.346,302.091 168.5,303.5C 169.452,301.955 169.785,300.288 169.5,298.5C 171.288,298.785 172.955,298.452 174.5,297.5C 171.231,296.676 169.065,294.676 168,291.5C 166.373,286.579 165.04,281.579 164,276.5C 160.955,274.325 159.789,271.325 160.5,267.5C 160.833,267.5 161.167,267.5 161.5,267.5C 168.798,275.298 176.298,282.965 184,290.5C 195.035,279.632 205.869,268.632 216.5,257.5C 220.5,253.833 224.5,250.167 228.5,246.5C 232.658,245.214 236.491,245.214 240,246.5C 244.16,248.115 248.326,249.782 252.5,251.5C 252.66,247.764 253.493,247.764 255,251.5C 254.653,253.61 254.82,255.61 255.5,257.5 Z"/></g>
<g><path style="opacity:1" fill="#64572e" d="M 195.5,317.5 C 192.156,321.677 188.323,325.344 184,328.5C 180.345,325.678 176.845,322.678 173.5,319.5C 173.167,318.833 172.833,318.167 172.5,317.5C 172.5,315.833 172.5,314.167 172.5,312.5C 175.879,312.147 178.879,310.813 181.5,308.5C 180.192,304.952 180.859,301.786 183.5,299C 182.584,298.626 181.75,298.126 181,297.5C 181.128,295.555 180.962,293.722 180.5,292C 185.297,291.842 189.797,290.676 194,288.5C 194.72,290.112 194.554,291.612 193.5,293C 192.833,293.667 192.167,293.667 191.5,293C 192.696,292.346 192.696,291.846 191.5,291.5C 190.205,292.098 188.872,292.598 187.5,293C 192.621,294.591 193.121,296.424 189,298.5C 186.116,302.19 183.95,306.19 182.5,310.5C 185.333,310.834 188.333,310.834 191.5,310.5C 191.5,309.5 191.5,308.5 191.5,307.5C 193.963,307.219 196.13,306.219 198,304.5C 198.167,304.833 198.333,305.167 198.5,305.5C 197.289,306.874 196.289,308.374 195.5,310C 195.833,310.5 196.167,311 196.5,311.5C 197.451,310.674 198.451,310.508 199.5,311C 198.016,312.574 196.349,313.907 194.5,315C 195.252,315.671 195.586,316.504 195.5,317.5 Z"/></g>
</svg>
