<?xml version="1.0" encoding="UTF-8"?>
<!DOCTYPE svg PUBLIC "-//W3C//DTD SVG 1.1//EN" "http://www.w3.org/Graphics/SVG/1.1/DTD/svg11.dtd">
<svg xmlns="http://www.w3.org/2000/svg" version="1.1" width="221px" height="309px" style="shape-rendering:geometricPrecision; text-rendering:geometricPrecision; image-rendering:optimizeQuality; fill-rule:evenodd; clip-rule:evenodd" xmlns:xlink="http://www.w3.org/1999/xlink">
<g><path style="opacity:1" fill="#5e5228" d="M 220.5,28.5 C 220.5,41.5 220.5,54.5 220.5,67.5C 210.187,68.5787 200.187,70.912 190.5,74.5C 184.655,75.3881 179.321,77.3881 174.5,80.5C 173.5,80.5 172.5,80.5 171.5,80.5C 172.936,78.917 174.602,77.417 176.5,76C 176.167,75.6667 175.833,75.3333 175.5,75C 177.027,73.6321 178.527,73.1321 180,73.5C 184.299,65.6607 185.466,57.6607 183.5,49.5C 184.66,49.5634 185.994,49.2301 187.5,48.5C 188.262,47.3717 188.929,46.2051 189.5,45C 186.833,43.6667 184.833,41.6667 183.5,39C 182.5,38.6667 181.5,38.3333 180.5,38C 176.83,38.1594 173.163,38.6594 169.5,39.5C 173.041,37.7648 176.707,36.4314 180.5,35.5C 193.543,31.4852 206.876,29.1518 220.5,28.5 Z"/></g>
<g><path style="opacity:1" fill="#66592f" d="M 171.5,80.5 C 164.813,83.0697 158.479,86.403 152.5,90.5C 138.698,97.9789 126.031,106.979 114.5,117.5C 113.5,118.167 112.5,118.833 111.5,119.5C 111.751,117.83 112.418,116.33 113.5,115C 112.872,112.63 112.539,110.297 112.5,108C 115.882,107.278 116.882,105.445 115.5,102.5C 116.5,101.667 117.5,100.833 118.5,100C 118.167,99.6667 117.833,99.3333 117.5,99C 119.061,95.3141 120.228,91.4808 121,87.5C 121.75,86.8742 122.584,86.3742 123.5,86C 124.005,82.6586 124.005,79.1586 123.5,75.5C 124.025,74.8076 124.692,74.3076 125.5,74C 123.128,72.5295 123.128,71.3628 125.5,70.5C 128.046,72.947 130.713,73.1136 133.5,71C 132.463,68.1883 133.13,65.6883 135.5,63.5C 134.45,61.8983 135.117,61.065 137.5,61C 136.747,59.513 135.914,59.3463 135,60.5C 134.878,58.563 134.045,57.2297 132.5,56.5C 133.833,55.5 135.167,54.5 136.5,53.5C 138.153,53.3404 139.486,52.6737 140.5,51.5C 143.696,50.0713 146.696,48.4046 149.5,46.5C 156.306,44.5648 162.972,42.2315 169.5,39.5C 173.163,38.6594 176.83,38.1594 180.5,38C 181.5,38.3333 182.5,38.6667 183.5,39C 184.833,41.6667 186.833,43.6667 189.5,45C 188.929,46.2051 188.262,47.3717 187.5,48.5C 185.994,49.2301 184.66,49.5634 183.5,49.5C 185.466,57.6607 184.299,65.6607 180,73.5C 178.527,73.1321 177.027,73.6321 175.5,75C 175.833,75.3333 176.167,75.6667 176.5,76C 174.602,77.417 172.936,78.917 171.5,80.5 Z"/></g>
<g><path style="opacity:1" fill="#6c6037" d="M 132.5,56.5 C 134.045,57.2297 134.878,58.563 135,60.5C 135.914,59.3463 136.747,59.513 137.5,61C 135.117,61.065 134.45,61.8983 135.5,63.5C 133.13,65.6883 132.463,68.1883 133.5,71C 130.713,73.1136 128.046,72.947 125.5,70.5C 123.128,71.3628 123.128,72.5295 125.5,74C 124.692,74.3076 124.025,74.8076 123.5,75.5C 124.005,79.1586 124.005,82.6586 123.5,86C 122.584,86.3742 121.75,86.8742 121,87.5C 120.228,91.4808 119.061,95.3141 117.5,99C 117.833,99.3333 118.167,99.6667 118.5,100C 117.5,100.833 116.5,101.667 115.5,102.5C 116.882,105.445 115.882,107.278 112.5,108C 112.539,110.297 112.872,112.63 113.5,115C 112.418,116.33 111.751,117.83 111.5,119.5C 111.5,119.833 111.5,120.167 111.5,120.5C 101.76,129.903 92.7596,139.903 84.5,150.5C 83.2652,150.279 82.2652,149.612 81.5,148.5C 79.5914,149.348 77.5914,149.682 75.5,149.5C 77.2388,144.671 78.4054,139.671 79,134.5C 80.1096,132.963 81.6096,132.297 83.5,132.5C 83.154,129.398 83.8207,126.565 85.5,124C 88.8478,122.031 92.5144,121.031 96.5,121C 97.1258,120.25 97.6258,119.416 98,118.5C 97.2988,115.67 97.4655,112.836 98.5,110C 97.5819,107.914 96.9153,105.747 96.5,103.5C 92.1074,103.543 91.7741,103.043 95.5,102C 92.6734,100.004 90.0067,97.8377 87.5,95.5C 86.0499,94.1502 85.3832,92.4835 85.5,90.5C 91.7951,84.3589 98.4618,78.6922 105.5,73.5C 111.538,69.1546 117.538,64.8212 123.5,60.5C 125.153,60.3404 126.486,59.6737 127.5,58.5C 129.05,57.5592 130.716,56.8925 132.5,56.5 Z"/></g>
<g><path style="opacity:1" fill="#53481f" d="M 220.5,84.5 C 220.5,89.8333 220.5,95.1667 220.5,100.5C 218.512,97.8717 216.512,95.205 214.5,92.5C 213.431,90.0313 212.098,87.6979 210.5,85.5C 213.768,84.513 217.102,84.1796 220.5,84.5 Z"/></g>
<g><path style="opacity:1" fill="#5e5228" d="M 198.5,123.5 C 198.5,126.167 198.5,128.833 198.5,131.5C 197.834,135.684 197.167,140.018 196.5,144.5C 191.131,140.782 185.797,137.116 180.5,133.5C 170.472,125.479 160.139,117.813 149.5,110.5C 152.866,108.487 156.199,106.487 159.5,104.5C 160.492,104.672 161.158,104.338 161.5,103.5C 174.394,97.5522 187.394,91.8855 200.5,86.5C 200.195,98.8544 199.528,111.188 198.5,123.5 Z"/></g>
<g><path style="opacity:1" fill="#66592f" d="M 85.5,90.5 C 85.3832,92.4835 86.0499,94.1502 87.5,95.5C 90.0067,97.8377 92.6734,100.004 95.5,102C 91.7741,103.043 92.1074,103.543 96.5,103.5C 96.9153,105.747 97.5819,107.914 98.5,110C 97.4655,112.836 97.2988,115.67 98,118.5C 97.6258,119.416 97.1258,120.25 96.5,121C 92.5144,121.031 88.8478,122.031 85.5,124C 83.8207,126.565 83.154,129.398 83.5,132.5C 81.6096,132.297 80.1096,132.963 79,134.5C 78.4054,139.671 77.2388,144.671 75.5,149.5C 77.5914,149.682 79.5914,149.348 81.5,148.5C 82.2652,149.612 83.2652,150.279 84.5,150.5C 84.4431,151.609 84.1098,152.609 83.5,153.5C 74.3149,166.87 66.9815,181.203 61.5,196.5C 60.4625,197.93 59.7959,199.597 59.5,201.5C 57.9281,204.215 56.9281,207.215 56.5,210.5C 55.8485,211.091 55.1818,211.757 54.5,212.5C 53.5745,211.359 52.7412,211.359 52,212.5C 48.8997,211.702 46.3997,210.035 44.5,207.5C 46.4597,205.709 47.793,203.543 48.5,201C 48.1667,200.667 47.8333,200.333 47.5,200C 49.1322,198.69 50.7988,198.19 52.5,198.5C 54.4756,196.713 55.8089,194.546 56.5,192C 50.869,188.921 50.7024,185.088 56,180.5C 55.7655,177.091 55.9322,173.758 56.5,170.5C 55.325,170.719 54.325,170.386 53.5,169.5C 57.1549,164.514 61.1549,159.847 65.5,155.5C 66.4287,154.311 66.762,152.978 66.5,151.5C 67.552,151.649 68.552,151.483 69.5,151C 65.9084,150.538 62.5751,148.872 59.5,146C 58.9026,144.111 58.5693,142.278 58.5,140.5C 60.1256,139.01 61.7923,137.51 63.5,136C 62.1667,135 62.1667,134 63.5,133C 61.5406,131.316 61.5406,129.316 63.5,127C 62.335,124.285 63.0017,121.952 65.5,120C 67.0806,119.293 68.5806,118.46 70,117.5C 70.2256,114.905 70.7256,112.405 71.5,110C 70.6195,109.292 69.9528,108.458 69.5,107.5C 72.7912,102.873 76.4579,98.54 80.5,94.5C 81.5,94.1667 82.1667,93.5 82.5,92.5C 83.5,91.8333 84.5,91.1667 85.5,90.5 Z"/></g>
<g><path style="opacity:1" fill="#605329" d="M 69.5,107.5 C 69.9528,108.458 70.6195,109.292 71.5,110C 70.7256,112.405 70.2256,114.905 70,117.5C 68.5806,118.46 67.0806,119.293 65.5,120C 63.0017,121.952 62.335,124.285 63.5,127C 61.5406,129.316 61.5406,131.316 63.5,133C 62.1667,134 62.1667,135 63.5,136C 61.7923,137.51 60.1256,139.01 58.5,140.5C 58.5693,142.278 58.9026,144.111 59.5,146C 62.5751,148.872 65.9084,150.538 69.5,151C 68.552,151.483 67.552,151.649 66.5,151.5C 66.762,152.978 66.4287,154.311 65.5,155.5C 61.1549,159.847 57.1549,164.514 53.5,169.5C 54.325,170.386 55.325,170.719 56.5,170.5C 55.9322,173.758 55.7655,177.091 56,180.5C 50.7024,185.088 50.869,188.921 56.5,192C 55.8089,194.546 54.4756,196.713 52.5,198.5C 50.7988,198.19 49.1322,198.69 47.5,200C 47.8333,200.333 48.1667,200.667 48.5,201C 47.793,203.543 46.4597,205.709 44.5,207.5C 46.3997,210.035 48.8997,211.702 52,212.5C 52.7412,211.359 53.5745,211.359 54.5,212.5C 55.1818,211.757 55.8485,211.091 56.5,210.5C 51.5621,226.795 49.2288,243.462 49.5,260.5C 49.1559,272.901 49.8225,285.234 51.5,297.5C 52.5828,301.085 53.2494,304.751 53.5,308.5C 46.5,308.5 39.5,308.5 32.5,308.5C 30.9397,306.871 31.273,305.704 33.5,305C 30.7254,303.733 28.0587,302.233 25.5,300.5C 22.9508,296.562 20.2842,292.729 17.5,289C 19.0023,286.994 18.669,285.328 16.5,284C 17.1667,283.667 17.8333,283.333 18.5,283C 15.5348,280.845 15.2015,278.511 17.5,276C 17.2614,274.219 16.9281,272.386 16.5,270.5C 20.3776,267.939 20.3776,265.439 16.5,263C 18.365,260.635 20.0317,260.468 21.5,262.5C 22.4287,261.311 22.762,259.978 22.5,258.5C 21.5,258.5 20.5,258.5 19.5,258.5C 19.2475,255.68 19.7475,253.014 21,250.5C 21.3333,251.5 21.6667,252.5 22,253.5C 22.4935,251.866 22.6602,250.199 22.5,248.5C 19.0933,248.875 18.5933,247.875 21,245.5C 22.8685,246.665 24.7018,246.332 26.5,244.5C 27.0522,242.997 27.0522,241.331 26.5,239.5C 23.4017,239.587 23.0684,239.087 25.5,238C 23.649,236.326 21.9824,235.159 20.5,234.5C 22.0064,233.253 23.5064,233.253 25,234.5C 25.7845,232.714 26.9512,231.214 28.5,230C 28.1667,229.667 27.8333,229.333 27.5,229C 28.6667,228.5 29.5,227.667 30,226.5C 30.3333,226.833 30.6667,227.167 31,227.5C 31.1705,225.285 31.8372,223.285 33,221.5C 33.3333,222.5 33.6667,223.5 34,224.5C 34.3603,222.579 35.1936,220.912 36.5,219.5C 33.972,218.184 33.972,217.017 36.5,216C 35.8333,215.333 35.1667,214.667 34.5,214C 35.4552,212.283 36.4552,210.616 37.5,209C 36.6919,208.692 36.0253,208.192 35.5,207.5C 37.275,207.069 38.6084,205.569 39.5,203C 38.9931,200.659 37.8265,200.159 36,201.5C 34.1759,200.251 34.3426,199.085 36.5,198C 35.8333,197.333 35.1667,196.667 34.5,196C 36.7173,194.725 39.0506,193.725 41.5,193C 38.6126,188.665 39.7793,187.165 45,188.5C 46.2547,187.789 47.4214,186.956 48.5,186C 47.3313,183.993 46.6646,181.827 46.5,179.5C 44.3254,179.318 42.3254,178.651 40.5,177.5C 38.5749,177.59 37.4083,178.59 37,180.5C 35.2703,180.491 33.437,180.158 31.5,179.5C 32.3256,178.549 32.4922,177.549 32,176.5C 30.6967,175.888 29.5301,175.554 28.5,175.5C 29.9079,174.757 31.2412,173.923 32.5,173C 31.6919,172.692 31.0253,172.192 30.5,171.5C 31.3629,170.274 31.3629,168.94 30.5,167.5C 37.2183,152.391 45.2183,138.058 54.5,124.5C 57.1846,121.81 59.5179,118.81 61.5,115.5C 63.8062,112.527 66.4728,109.86 69.5,107.5 Z"/></g>
<g><path style="opacity:1" fill="#64582e" d="M 146.5,127.5 C 146.5,128.5 146.5,129.5 146.5,130.5C 146.959,133.877 147.626,137.211 148.5,140.5C 144.818,141.275 142.318,139.941 141,136.5C 140.25,137.126 139.416,137.626 138.5,138C 139.144,140.74 140.311,143.24 142,145.5C 143.912,143.006 145.746,143.173 147.5,146C 143.624,148.539 143.624,150.872 147.5,153C 146.572,153.388 145.905,154.055 145.5,155C 146.833,156.333 148.167,157.667 149.5,159C 147.566,160.954 147.233,163.12 148.5,165.5C 147.311,166.429 145.978,166.762 144.5,166.5C 138.833,165.167 133.167,163.833 127.5,162.5C 126.833,161.833 126.167,161.167 125.5,160.5C 128.097,160.279 128.097,159.779 125.5,159C 127.657,156.678 129.99,154.511 132.5,152.5C 131.109,152.891 130.109,152.058 129.5,150C 132.573,146.417 134.24,142.25 134.5,137.5C 132.902,137.39 131.235,137.057 129.5,136.5C 128.097,134.43 126.43,132.763 124.5,131.5C 124.5,131.167 124.5,130.833 124.5,130.5C 130.131,125.37 135.631,120.036 141,114.5C 142.947,118.859 144.781,123.192 146.5,127.5 Z"/></g>
<g><path style="opacity:1" fill="#5d5129" d="M 146.5,130.5 C 148.379,137.647 150.712,144.647 153.5,151.5C 154.261,155.784 155.595,159.784 157.5,163.5C 157.5,163.833 157.5,164.167 157.5,164.5C 157.821,165.817 158.154,167.151 158.5,168.5C 158.253,169.713 157.586,170.38 156.5,170.5C 152.5,169.167 148.5,167.833 144.5,166.5C 145.978,166.762 147.311,166.429 148.5,165.5C 147.233,163.12 147.566,160.954 149.5,159C 148.167,157.667 146.833,156.333 145.5,155C 145.905,154.055 146.572,153.388 147.5,153C 143.624,150.872 143.624,148.539 147.5,146C 145.746,143.173 143.912,143.006 142,145.5C 140.311,143.24 139.144,140.74 138.5,138C 139.416,137.626 140.25,137.126 141,136.5C 142.318,139.941 144.818,141.275 148.5,140.5C 147.626,137.211 146.959,133.877 146.5,130.5 Z"/></g>
<g><path style="opacity:1" fill="#6a5e35" d="M 124.5,131.5 C 126.43,132.763 128.097,134.43 129.5,136.5C 131.235,137.057 132.902,137.39 134.5,137.5C 134.24,142.25 132.573,146.417 129.5,150C 130.109,152.058 131.109,152.891 132.5,152.5C 129.99,154.511 127.657,156.678 125.5,159C 128.097,159.779 128.097,160.279 125.5,160.5C 120.075,159.929 114.742,158.929 109.5,157.5C 106.976,156.26 104.309,155.093 101.5,154C 106.37,149.298 111.037,144.465 115.5,139.5C 118.5,136.833 121.5,134.167 124.5,131.5 Z"/></g>
<g><path style="opacity:1" fill="#5b5025" d="M 29.5,167.5 C 29.8333,167.5 30.1667,167.5 30.5,167.5C 31.3629,168.94 31.3629,170.274 30.5,171.5C 31.0253,172.192 31.6919,172.692 32.5,173C 31.2412,173.923 29.9079,174.757 28.5,175.5C 29.5301,175.554 30.6967,175.888 32,176.5C 32.4922,177.549 32.3256,178.549 31.5,179.5C 33.437,180.158 35.2703,180.491 37,180.5C 37.4083,178.59 38.5749,177.59 40.5,177.5C 42.3254,178.651 44.3254,179.318 46.5,179.5C 46.6646,181.827 47.3313,183.993 48.5,186C 47.4214,186.956 46.2547,187.789 45,188.5C 39.7793,187.165 38.6126,188.665 41.5,193C 39.0506,193.725 36.7173,194.725 34.5,196C 35.1667,196.667 35.8333,197.333 36.5,198C 34.3426,199.085 34.1759,200.251 36,201.5C 37.8265,200.159 38.9931,200.659 39.5,203C 38.6084,205.569 37.275,207.069 35.5,207.5C 36.0253,208.192 36.6919,208.692 37.5,209C 36.4552,210.616 35.4552,212.283 34.5,214C 35.1667,214.667 35.8333,215.333 36.5,216C 33.972,217.017 33.972,218.184 36.5,219.5C 35.1936,220.912 34.3603,222.579 34,224.5C 33.6667,223.5 33.3333,222.5 33,221.5C 31.8372,223.285 31.1705,225.285 31,227.5C 30.6667,227.167 30.3333,226.833 30,226.5C 29.5,227.667 28.6667,228.5 27.5,229C 27.8333,229.333 28.1667,229.667 28.5,230C 26.9512,231.214 25.7845,232.714 25,234.5C 23.5064,233.253 22.0064,233.253 20.5,234.5C 21.9824,235.159 23.649,236.326 25.5,238C 23.0684,239.087 23.4017,239.587 26.5,239.5C 27.0522,241.331 27.0522,242.997 26.5,244.5C 24.7018,246.332 22.8685,246.665 21,245.5C 18.5933,247.875 19.0933,248.875 22.5,248.5C 22.6602,250.199 22.4935,251.866 22,253.5C 21.6667,252.5 21.3333,251.5 21,250.5C 19.7475,253.014 19.2475,255.68 19.5,258.5C 20.5,258.5 21.5,258.5 22.5,258.5C 22.762,259.978 22.4287,261.311 21.5,262.5C 20.0317,260.468 18.365,260.635 16.5,263C 20.3776,265.439 20.3776,267.939 16.5,270.5C 16.9281,272.386 17.2614,274.219 17.5,276C 15.2015,278.511 15.5348,280.845 18.5,283C 17.8333,283.333 17.1667,283.667 16.5,284C 18.669,285.328 19.0023,286.994 17.5,289C 20.2842,292.729 22.9508,296.562 25.5,300.5C 28.0587,302.233 30.7254,303.733 33.5,305C 31.273,305.704 30.9397,306.871 32.5,308.5C 26.1667,308.5 19.8333,308.5 13.5,308.5C 11.1338,298.319 10.1338,287.986 10.5,277.5C 10.3822,263.819 10.7156,250.152 11.5,236.5C 13.9743,214.749 19.3076,193.749 27.5,173.5C 28.4582,171.698 29.1249,169.698 29.5,167.5 Z"/></g>
<g><path style="opacity:1" fill="#665930" d="M 106.5,175.5 C 107.728,176.306 108.728,177.306 109.5,178.5C 116.582,188.316 123.915,197.983 131.5,207.5C 126.846,208.347 122.179,209.013 117.5,209.5C 117.67,208.178 117.337,207.011 116.5,206C 113.173,205.39 109.839,204.89 106.5,204.5C 105.924,201.974 105.59,199.474 105.5,197C 108.353,192.966 110.019,188.466 110.5,183.5C 110.167,181.833 109.167,180.833 107.5,180.5C 106.548,178.955 106.215,177.288 106.5,175.5 Z"/></g>
<g><path style="opacity:1" fill="#6b5f36" d="M 106.5,175.5 C 106.215,177.288 106.548,178.955 107.5,180.5C 109.167,180.833 110.167,181.833 110.5,183.5C 110.019,188.466 108.353,192.966 105.5,197C 105.59,199.474 105.924,201.974 106.5,204.5C 109.839,204.89 113.173,205.39 116.5,206C 117.337,207.011 117.67,208.178 117.5,209.5C 102.849,210.689 88.1823,211.689 73.5,212.5C 73.523,210.073 74.023,207.74 75,205.5C 80.6564,195.189 85.4897,184.522 89.5,173.5C 91.4696,169.561 93.4696,165.561 95.5,161.5C 99.9225,165.587 103.589,170.254 106.5,175.5 Z"/></g>
<g><path style="opacity:1" fill="#65582e" d="M 70.5,221.5 C 86.4447,231.813 102.445,242.146 118.5,252.5C 117.757,253.182 117.091,253.849 116.5,254.5C 109.762,256.952 103.428,259.952 97.5,263.5C 87.7411,267.545 78.0744,271.878 68.5,276.5C 67.8501,276.804 67.1835,277.137 66.5,277.5C 65.5481,275.955 65.2148,274.288 65.5,272.5C 66.4861,268.03 66.8195,263.363 66.5,258.5C 67.9625,250.377 68.6291,242.044 68.5,233.5C 67.9106,229.029 68.5772,225.029 70.5,221.5 Z"/></g>
<g><path style="opacity:1" fill="#73683f" d="M 65.5,288.5 C 65.7352,287.903 66.2352,287.57 67,287.5C 80.2086,289.927 93.3753,292.594 106.5,295.5C 106.678,298.879 106.678,302.045 106.5,305C 108.426,305.422 109.426,306.589 109.5,308.5C 96.8333,308.5 84.1667,308.5 71.5,308.5C 69.6656,301.674 67.6656,295.007 65.5,288.5 Z"/></g>
<g><path style="opacity:1" fill="#695c34" d="M 106.5,295.5 C 109.37,296.634 112.37,297.3 115.5,297.5C 117.565,297.517 119.565,297.85 121.5,298.5C 122.525,298.897 122.692,299.563 122,300.5C 119.295,303.036 116.795,305.703 114.5,308.5C 112.833,308.5 111.167,308.5 109.5,308.5C 109.426,306.589 108.426,305.422 106.5,305C 106.678,302.045 106.678,298.879 106.5,295.5 Z"/></g>
</svg>
