<?xml version="1.0" standalone="no"?>
<!DOCTYPE svg PUBLIC "-//W3C//DTD SVG 20010904//EN"
 "http://www.w3.org/TR/2001/REC-SVG-20010904/DTD/svg10.dtd">
<svg version="1.0" xmlns="http://www.w3.org/2000/svg"
 width="936.000000pt" height="936.000000pt" viewBox="0 0 936.000000 936.000000"
 preserveAspectRatio="xMidYMid meet">
<metadata>
Created by potrace 1.14, written by Peter Selinger 2001-2017
</metadata>
<g transform="translate(0.000000,936.000000) scale(0.100000,-0.100000)"
fill="#000000" stroke="none">
<path d="M3300 7341 c-81 -28 -116 -54 -190 -140 -63 -73 -84 -97 -149 -166
-31 -33 -74 -85 -96 -115 -22 -30 -42 -57 -45 -60 -3 -3 -44 -57 -90 -120 -46
-63 -90 -122 -97 -130 -13 -16 -173 -231 -201 -268 -21 -29 -68 -91 -85 -112
-7 -8 -28 -37 -47 -65 -19 -27 -40 -54 -46 -60 -6 -5 -22 -26 -34 -45 -13 -19
-27 -37 -30 -40 -4 -3 -26 -32 -50 -65 -24 -33 -48 -64 -52 -70 -4 -5 -18 -23
-31 -40 -19 -24 -109 -143 -159 -210 -4 -5 -18 -23 -31 -40 -13 -16 -65 -84
-115 -150 -50 -66 -101 -131 -112 -145 -43 -51 -204 -297 -260 -395 -10 -16
-27 -47 -39 -67 -13 -21 -24 -43 -25 -50 -2 -7 -6 -20 -9 -28 -11 -27 -67
-205 -68 -215 -1 -5 -6 -21 -12 -35 -14 -36 -47 -150 -53 -185 -2 -16 -7 -41
-11 -55 -43 -174 -35 -473 21 -691 26 -102 146 -358 185 -393 23 -21 85 -26
101 -10 6 6 12 95 15 199 3 105 7 206 9 225 2 19 6 76 10 125 4 50 9 108 11
130 3 22 7 63 10 90 16 143 59 348 91 430 9 22 16 42 16 45 4 58 142 351 230
490 59 93 227 323 240 328 4 2 8 8 8 14 0 9 25 42 125 164 14 18 25 36 25 42
0 6 4 12 8 14 4 2 23 23 42 48 19 25 37 47 40 50 3 3 21 25 40 50 19 25 83
108 144 185 60 77 111 141 112 143 1 2 286 13 322 12 6 0 18 0 25 -1 6 0 66 0
132 0 66 0 127 0 135 0 8 -1 20 0 25 1 6 1 22 2 38 1 21 -1 27 -6 27 -23 0
-25 -11 -39 -129 -168 -43 -47 -98 -107 -122 -134 -24 -27 -53 -59 -64 -70
-11 -12 -51 -57 -90 -100 -38 -44 -81 -91 -94 -105 -13 -14 -42 -48 -65 -75
-22 -27 -48 -56 -57 -65 -8 -9 -60 -68 -114 -131 -55 -63 -104 -120 -110 -126
-5 -6 -28 -33 -50 -60 -22 -27 -54 -64 -71 -84 -17 -19 -87 -102 -155 -185
-107 -129 -143 -175 -222 -288 -29 -42 -109 -177 -139 -237 -18 -36 -35 -67
-39 -70 -3 -3 -12 -21 -21 -40 -70 -153 -99 -226 -123 -321 -17 -63 -20 -79
-30 -129 -3 -14 -7 -36 -10 -49 -15 -75 -22 -447 -11 -541 17 -135 17 -135 36
-210 6 -25 14 -58 17 -73 3 -16 16 -35 29 -43 20 -14 26 -14 58 1 20 10 37 25
37 34 5 73 40 169 75 209 13 15 24 21 24 15 0 -7 4 -13 10 -13 5 0 39 -21 75
-47 37 -27 77 -55 88 -63 12 -8 27 -19 33 -25 6 -5 22 -17 34 -25 13 -8 32
-23 42 -33 10 -9 60 -36 111 -58 50 -23 140 -65 200 -95 59 -29 107 -51 107
-49 0 2 19 -4 43 -14 23 -10 81 -28 127 -39 80 -20 110 -26 185 -38 51 -9 331
-12 366 -5 31 6 39 17 95 124 34 64 59 119 56 122 -3 3 0 5 6 5 7 0 12 6 12
14 0 7 13 42 29 77 73 162 157 460 186 664 22 154 22 192 -4 250 -11 24 -30
50 -43 58 -39 25 -285 79 -307 68 -16 -9 -18 -23 -16 -133 1 -68 -1 -127 -3
-132 -3 -5 -6 -27 -7 -50 -8 -132 -59 -302 -141 -471 -47 -96 -59 -114 -100
-139 -53 -33 -86 -33 -214 3 -78 22 -195 63 -204 72 -6 5 -16 9 -23 9 -21 0
-228 106 -305 155 -38 25 -73 45 -77 45 -5 0 -11 4 -13 9 -1 4 -43 38 -91 75
-126 96 -128 99 -126 154 3 62 24 128 54 174 l25 38 73 -53 c40 -28 81 -57 92
-64 262 -162 464 -246 602 -252 56 -2 62 0 81 26 59 84 104 209 117 322 6 60
6 60 -22 67 -89 20 -239 68 -338 107 -81 32 -259 120 -263 129 -2 5 -8 8 -14
8 -5 0 -48 25 -94 55 l-85 55 28 38 c15 20 30 39 33 42 3 3 24 30 45 60 22 30
45 62 52 70 7 8 80 105 162 215 83 110 154 205 158 210 8 9 266 344 285 370
64 84 156 156 220 172 34 8 161 12 173 5 6 -4 16 -7 23 -8 8 -2 21 -6 30 -10
9 -4 20 -8 23 -8 15 -3 67 -56 88 -91 21 -35 24 -54 26 -150 3 -131 7 -156 37
-215 78 -152 167 -210 275 -181 76 21 116 73 130 171 9 59 11 349 2 395 -16
87 -19 95 -57 133 -72 70 -121 112 -132 112 -5 0 -10 4 -10 9 0 11 -145 106
-238 156 -102 54 -105 61 -56 127 22 29 58 80 79 113 22 33 45 66 52 73 7 7
13 19 13 27 0 7 3 15 8 17 4 2 21 25 39 52 28 45 31 56 31 131 0 128 -51 213
-161 268 -48 24 -65 27 -217 32 -257 9 -470 21 -476 28 -3 4 207 272 217 275
5 2 9 10 9 17 0 7 3 15 8 17 4 2 23 23 42 48 116 150 119 152 196 165 239 40
486 -40 642 -210 139 -151 175 -352 99 -550 -24 -60 -101 -211 -124 -241 -12
-17 -23 -36 -23 -42 0 -6 -4 -12 -8 -14 -18 -7 -60 -81 -55 -97 17 -45 92
-142 150 -191 36 -30 116 -105 179 -166 l114 -111 5 -59 c3 -32 7 -88 10 -124
2 -36 5 -65 5 -65 1 0 3 -27 5 -60 1 -33 6 -94 9 -135 9 -108 20 -310 31 -550
14 -312 22 -1111 11 -1140 -3 -8 -12 -44 -21 -79 -17 -66 -46 -153 -71 -208
-8 -17 -14 -34 -14 -37 0 -3 -12 -31 -27 -63 -14 -32 -27 -60 -27 -63 -1 -3
-8 -16 -15 -30 -8 -14 -27 -50 -44 -80 -33 -61 -114 -189 -149 -234 -137 -177
-228 -272 -407 -424 -54 -47 -59 -69 -32 -121 13 -23 16 -23 95 -18 119 8 194
42 340 151 237 177 418 374 549 596 31 52 60 100 65 105 4 6 9 13 10 17 1 5
16 38 33 75 102 222 132 328 144 508 2 28 6 77 10 110 3 33 7 89 10 125 3 36
8 85 11 110 3 25 7 68 9 95 2 28 6 79 9 115 11 140 20 246 31 355 3 28 7 84
10 125 5 75 7 101 21 235 3 39 8 88 9 110 4 68 16 218 20 250 2 16 7 71 10
120 4 50 8 106 10 125 2 19 6 68 9 108 l6 73 98 97 c54 53 125 121 157 151
119 107 136 124 151 153 28 54 26 72 -17 139 -23 35 -51 75 -64 89 -30 32 -99
185 -111 243 -2 10 -7 28 -11 40 -4 12 -8 30 -9 40 -1 9 -3 18 -4 20 -1 1 -4
41 -6 88 -8 220 94 370 326 483 189 92 359 115 471 64 57 -26 54 -23 232 -251
27 -34 59 -75 73 -92 111 -138 144 -185 127 -186 -107 -8 -301 -18 -477 -24
-131 -5 -154 -8 -185 -28 -101 -61 -170 -158 -176 -246 -3 -50 15 -135 39
-178 8 -16 20 -38 25 -50 6 -12 26 -39 46 -60 46 -49 100 -129 125 -187 l19
-46 -52 -22 c-143 -62 -265 -145 -384 -261 -45 -45 -80 -84 -78 -87 1 -3 -3
-43 -10 -90 -7 -48 -12 -161 -11 -261 1 -175 1 -176 30 -219 60 -92 97 -105
197 -73 37 12 69 33 106 69 29 28 53 55 54 60 0 5 2 16 4 24 2 8 18 87 36 175
45 225 46 228 72 266 30 44 100 71 192 73 123 2 183 -20 240 -89 22 -26 49
-57 60 -69 11 -12 38 -44 60 -71 22 -28 45 -56 52 -63 8 -8 26 -30 41 -50 15
-21 32 -42 38 -49 20 -21 278 -355 354 -458 16 -22 34 -45 38 -50 5 -6 48 -64
95 -130 107 -146 109 -158 32 -215 -72 -53 -195 -117 -336 -175 -62 -26 -120
-52 -127 -57 -7 -6 -15 -8 -19 -5 -3 4 -11 3 -17 -2 -6 -4 -58 -23 -115 -41
l-104 -33 7 -89 c3 -49 13 -102 21 -118 9 -17 13 -30 10 -30 -3 0 9 -28 27
-61 18 -34 37 -70 43 -80 20 -38 77 -46 157 -20 94 30 188 65 262 100 36 17
67 30 69 29 1 -1 21 11 44 25 24 15 45 27 48 27 10 0 180 113 222 147 l41 34
25 -33 c21 -28 38 -60 41 -78 1 -3 4 -10 8 -15 4 -6 10 -38 13 -72 8 -68 15
-58 -94 -153 -88 -77 -219 -163 -331 -220 -94 -47 -168 -76 -182 -72 -5 1 -8
-3 -8 -8 0 -6 -10 -10 -23 -10 -13 0 -28 -5 -35 -12 -7 -7 -12 -9 -12 -5 0 3
-11 2 -25 -3 -24 -9 -48 -15 -105 -26 -14 -2 -34 -6 -46 -9 -35 -8 -86 -15
-146 -20 l-58 -4 -29 42 c-59 86 -141 257 -156 327 -2 8 -11 45 -20 83 -8 37
-18 104 -21 150 -7 99 -7 79 1 210 5 85 4 107 -7 108 -97 8 -182 -3 -253 -32
-17 -7 -33 -12 -37 -11 -5 1 -8 -3 -8 -8 0 -6 -6 -10 -12 -10 -7 0 -26 -11
-42 -23 -28 -23 -29 -26 -31 -123 -2 -86 8 -173 38 -326 16 -80 62 -241 96
-336 51 -142 135 -324 186 -407 14 -22 31 -52 37 -67 11 -24 18 -28 58 -29
138 -2 309 10 394 27 12 2 36 7 55 10 18 3 42 8 52 10 11 2 27 6 37 8 200 45
433 145 617 264 73 47 175 123 210 155 41 38 52 39 74 8 12 -16 21 -36 21 -44
0 -26 52 -172 68 -190 16 -18 50 -15 64 7 5 6 8 7 9 1 1 -13 49 143 55 178 2
15 7 42 10 60 3 17 8 148 11 289 4 188 2 271 -7 310 -20 83 -97 309 -136 400
-46 106 -153 318 -170 338 -7 8 -12 17 -12 20 2 9 -118 198 -138 217 -8 8 -14
17 -14 21 0 4 -12 21 -28 37 -15 17 -50 58 -77 92 -28 35 -53 63 -57 63 -5 0
-8 4 -8 10 0 9 -16 31 -45 64 -6 6 -44 52 -85 101 -127 154 -393 469 -409 486
-9 8 -36 40 -61 69 -25 30 -54 64 -65 76 -11 13 -38 44 -60 69 -22 25 -51 59
-65 74 -14 15 -50 56 -80 91 -30 35 -66 75 -80 90 -14 15 -42 46 -62 70 -53
60 -49 102 7 90 28 -6 55 -7 55 -1 0 3 44 5 97 3 97 -2 111 -2 136 -2 81 3
352 -11 355 -19 2 -5 13 -20 25 -34 12 -13 34 -39 49 -58 24 -31 51 -64 78
-96 6 -7 73 -95 150 -195 77 -101 146 -190 153 -199 6 -8 17 -22 22 -31 14
-21 102 -140 115 -155 5 -7 21 -28 33 -47 13 -19 38 -52 55 -74 18 -22 32 -42
32 -45 0 -4 22 -37 50 -74 27 -37 53 -73 57 -79 64 -87 158 -321 202 -501 17
-70 39 -153 48 -183 9 -30 16 -56 15 -57 0 -2 4 -17 9 -35 5 -18 12 -49 15
-68 2 -19 7 -46 10 -60 10 -55 24 -290 29 -520 7 -283 12 -312 49 -306 38 5
126 121 176 232 27 57 76 205 85 256 3 13 7 34 10 48 25 118 30 183 28 394 -2
142 -7 220 -19 270 -37 165 -57 235 -91 326 -38 103 -145 324 -170 353 -9 9
-13 17 -9 17 4 0 -3 13 -16 29 -12 16 -44 58 -69 93 -93 127 -343 463 -348
468 -4 3 -19 23 -34 46 -15 22 -36 50 -48 62 -11 12 -17 22 -13 22 4 0 -2 8
-12 18 -10 9 -58 69 -106 132 -47 63 -94 125 -105 137 -10 12 -27 34 -38 49
-11 15 -25 32 -30 38 -6 6 -26 31 -45 56 -19 25 -40 52 -47 60 -6 8 -40 51
-75 95 -35 44 -94 121 -132 170 -38 50 -71 92 -75 95 -3 3 -28 34 -55 70 -66
86 -61 80 -96 121 -16 20 -30 41 -30 47 0 6 -4 12 -8 14 -5 2 -25 25 -45 51
-20 26 -42 54 -49 62 -7 8 -49 62 -93 121 -117 156 -163 200 -258 243 -38 17
-65 21 -154 21 -68 0 -123 -6 -150 -15 -22 -8 -53 -16 -67 -19 -14 -3 -30 -7
-36 -11 -5 -3 -18 -8 -27 -10 -24 -4 -237 -82 -293 -107 -25 -11 -101 -47
-170 -81 -104 -50 -135 -71 -184 -121 -120 -125 -214 -288 -242 -421 -17 -81
-26 -266 -15 -290 3 -5 7 -18 8 -27 2 -10 5 -26 7 -35 2 -10 7 -37 11 -61 4
-23 12 -45 16 -48 5 -3 9 -14 9 -25 0 -21 31 -88 99 -213 l43 -78 -58 -56
c-86 -81 -221 -162 -261 -156 -7 1 -22 2 -32 3 -26 1 -186 108 -244 163 l-48
45 44 64 c50 72 110 184 110 205 0 8 4 14 7 14 6 0 21 51 19 63 0 1 4 14 10
28 25 68 34 242 17 359 -16 120 -89 298 -154 380 -78 98 -133 140 -262 201
-69 33 -137 66 -152 75 -15 8 -31 15 -35 15 -5 0 -28 9 -53 20 -146 66 -295
114 -445 144 -62 13 -131 11 -175 -4z"/>
</g>
</svg>
